<svg enable-background="new 0 0 711.352 114" viewBox="0 0 711.352 114" xmlns="http://www.w3.org/2000/svg"><path clip-rule="evenodd" d="m74.011 10.395c-.837-.504-1.694-.977-2.567-1.417-.894-.439-1.814-.867-2.746-1.238-.295-.125-.587-.238-.884-.354-.816-.303-1.638-.64-2.479-.887-4.659-1.531-9.53-2.308-14.434-2.301-25.645 0-46.401 20.753-46.401 46.401 0 22.579 16.186 41.34 37.546 45.514v13.284c27.769-4.188 52.36-26.231 54.193-55.171 1.104-17.416-7.581-35.194-22.228-43.831z" fill="#23d96c" fill-rule="evenodd"/><g fill="#173647"><path d="m39.546 112.302v-14.175c-21.878-5.238-37.546-24.904-37.546-47.528 0-26.964 21.937-48.9 48.901-48.9 5.185.025 10.295.81 15.214 2.426.656.19 1.338.45 1.999.702l.674.256c.298.116.591.231.886.356.826.328 1.755.747 2.873 1.297.944.475 1.86.98 2.742 1.512 15.204 8.97 24.625 27.51 23.444 46.137-1.816 28.662-25.5 52.838-56.316 57.484zm11.42-105.604c-.021 0-.041 0-.061 0-24.211 0-43.905 19.694-43.905 43.901 0 20.929 14.94 39.038 35.525 43.061l2.021.395v12.373c27.091-5.312 47.587-26.922 49.198-52.359 1.065-16.798-7.375-33.483-21.002-41.519l-.021-.013c-.778-.469-1.585-.915-2.4-1.324-.977-.48-1.793-.849-2.547-1.148-.303-.128-.552-.226-.805-.324l-.636-.241c-.595-.227-1.157-.44-1.7-.6-4.471-1.469-9.043-2.202-13.667-2.202z"/><path clip-rule="evenodd" d="m41.637 27.051c1.417-.175 2.829.367 3.764 1.447.746.716 1.224 1.667 1.732 2.633 1.533 3.383 2.442 8.231.546 10.953-3.428-.661-7.935-3.958-9.467-7.341-.508-.965-.806-2.21-.826-3.185-.05-2.439 2.029-4.25 4.251-4.507z" fill-rule="evenodd"/><path clip-rule="evenodd" d="m30.486 38.592c.256-.012.487-.029.761 0 1.219 0 2.209.275 3.428.763 3.413 1.463 7.224 5.036 7.957 8.206-2.927 1.951-8.201 1.791-11.614.328-.975-.488-1.922-1.022-2.897-1.753-3.2-2.514-1.48-7.347 2.365-7.544z" fill-rule="evenodd"/><path clip-rule="evenodd" d="m34.675 62.976c-.975.488-2.209.763-3.428.763-4.39.244-6.523-4.86-3.353-7.542.731-.731 1.678-1.268 2.897-1.756 1.28-.549 2.621-.812 3.962-.836 2.219-.04 6.03-.536 7.878.695-.488 3.17-4.543 7.213-7.956 8.676z" fill-rule="evenodd"/><path clip-rule="evenodd" d="m48.743 70.825c-.487.975-.944 1.921-1.675 2.897-2.438 3.17-8.093.944-7.849-3.202 0-.975.275-2.148.763-3.124 1.463-3.414 5.441-7.608 8.856-8.339 1.951 2.926 1.368 8.598-.095 11.768z" fill-rule="evenodd"/><path clip-rule="evenodd" d="m54.717 31.05c.487-.975.945-1.921 1.678-2.897.936-1.111 2.365-1.683 3.809-1.524 2.276.234 4.421 2.058 4.267 4.648 0 .975-.274 2.226-.761 3.202-1.463 3.414-5.375 6.802-8.789 7.533-2.196-2.682-1.668-7.548-.204-10.962z" fill-rule="evenodd"/><path clip-rule="evenodd" d="m56.85 73.722c-.732-.731-1.188-1.692-1.675-2.668-1.463-3.414-1.412-8.522.538-11.204 3.413.731 6.989 4.362 8.452 7.776.487.975.763 2.224.763 3.199.245 3.657-5.397 5.823-8.078 2.897z" fill-rule="evenodd"/><path clip-rule="evenodd" d="m71.785 63.51c-1.219 0-2.21-.273-3.429-.761-3.413-1.463-7.155-4.883-7.886-8.052 1.876-1.232 5.337-1.362 7.581-1.321 1.363.021 2.709.306 3.962.839.975.488 1.919.944 2.894 1.675 3.415 2.438 1.267 7.864-3.122 7.62z" fill-rule="evenodd"/><path d="m147.718 36.565c-5.335 0-9.546 1.775-12.634 5.328s-4.632 8.418-4.632 14.594c0 6.353 1.488 11.262 4.466 14.725 2.977 3.465 7.222 5.197 12.733 5.197 3.387 0 7.249-.609 11.588-1.826v4.947c-3.365 1.262-7.515 1.893-12.451 1.893-7.15 0-12.667-2.17-16.552-6.508-3.885-4.339-5.827-10.504-5.827-18.494 0-5.003.935-9.386 2.806-13.148 1.87-3.764 4.571-6.663 8.102-8.699 3.53-2.037 7.687-3.055 12.468-3.055 5.091 0 9.54.93 13.348 2.789l-2.391 4.848c-3.676-1.728-7.35-2.591-11.024-2.591z"/><path d="m170.876 44.368v23.607c0 2.966.675 5.18 2.025 6.641s3.464 2.191 6.342 2.191c3.807 0 6.591-1.041 8.351-3.121 1.76-2.081 2.64-5.479 2.64-10.193v-19.125h5.512v36.391h-4.549l-.797-4.881h-.299c-1.129 1.793-2.695 3.165-4.698 4.117-2.003.951-4.289 1.428-6.856 1.428-4.427 0-7.742-1.052-9.944-3.154-2.203-2.104-3.304-5.468-3.304-10.094v-23.807z"/><path d="m219.439 81.423c-5.269 0-9.347-1.621-12.235-4.865-2.889-3.242-4.333-7.83-4.333-13.762 0-6.088 1.466-10.791 4.399-14.111s7.11-4.98 12.534-4.98c1.748 0 3.497.188 5.246.564 1.748.376 3.121.818 4.117 1.328l-1.693 4.682c-1.218-.487-2.546-.891-3.984-1.213-1.439-.32-2.712-.48-3.818-.48-7.394 0-11.09 4.715-11.09 14.145 0 4.471.901 7.902 2.706 10.293 1.804 2.391 4.477 3.586 8.019 3.586 3.032 0 6.143-.653 9.33-1.959v4.881c-2.436 1.26-5.501 1.891-9.198 1.891z"/><path d="m240.178 44.368v23.607c0 2.966.675 5.18 2.025 6.641s3.464 2.191 6.342 2.191c3.807 0 6.591-1.041 8.351-3.121 1.76-2.081 2.64-5.479 2.64-10.193v-19.125h5.512v36.391h-4.549l-.797-4.881h-.299c-1.129 1.793-2.695 3.165-4.698 4.117-2.004.951-4.289 1.428-6.856 1.428-4.428 0-7.742-1.052-9.944-3.154-2.203-2.104-3.304-5.468-3.304-10.094v-23.807z"/><path d="m320.338 80.759v-23.674c0-2.9-.62-5.074-1.859-6.525-1.24-1.449-3.166-2.174-5.777-2.174-3.432 0-5.966.984-7.604 2.955-1.639 1.97-2.457 5.002-2.457 9.098v20.32h-5.512v-23.674c0-2.9-.62-5.074-1.859-6.525-1.24-1.449-3.177-2.174-5.811-2.174-3.453 0-5.982 1.035-7.587 3.104-1.605 2.07-2.407 5.463-2.407 10.178v19.092h-5.512v-36.392h4.482l.896 4.98h.266c1.04-1.771 2.507-3.154 4.399-4.15s4.012-1.494 6.358-1.494c5.688 0 9.407 2.059 11.156 6.176h.266c1.084-1.904 2.656-3.409 4.715-4.516s4.404-1.66 7.039-1.66c4.117 0 7.199 1.057 9.247 3.17 2.047 2.115 3.071 5.496 3.071 10.145v23.74z"/><path d="m351.507 43.77c4.781 0 8.494 1.633 11.14 4.896 2.645 3.266 3.968 7.887 3.968 13.863s-1.334 10.619-4.001 13.928c-2.668 3.311-6.37 4.965-11.106 4.965-2.369 0-4.532-.438-6.491-1.312-1.959-.873-3.603-2.219-4.931-4.033h-.398l-1.162 4.682h-3.951v-51.665h5.512v12.551c0 2.811-.089 5.334-.266 7.57h.266c2.565-3.63 6.373-5.445 11.42-5.445zm-.797 4.615c-3.764 0-6.475 1.078-8.135 3.236s-2.49 5.795-2.49 10.908.852 8.771 2.557 10.973c1.704 2.203 4.438 3.305 8.201 3.305 3.387 0 5.91-1.234 7.57-3.703 1.66-2.467 2.49-6.015 2.49-10.641 0-4.737-.83-8.268-2.49-10.592s-4.228-3.486-7.703-3.486z"/><path d="m389.427 81.423c-5.379 0-9.624-1.639-12.733-4.914-3.11-3.276-4.665-7.825-4.665-13.646 0-5.866 1.444-10.525 4.333-13.979s6.768-5.18 11.638-5.18c4.56 0 8.168 1.5 10.824 4.498 2.656 3 3.984 6.957 3.984 11.871v3.486h-25.068c.11 4.271 1.189 7.515 3.237 9.729 2.047 2.213 4.931 3.32 8.649 3.32 3.918 0 7.791-.819 11.621-2.457v4.914c-1.948.841-3.791 1.443-5.528 1.809-1.739.365-3.835.549-6.292.549zm-1.494-33.104c-2.922 0-5.252.951-6.989 2.855-1.738 1.903-2.762 4.537-3.071 7.902h19.025c0-3.476-.775-6.137-2.324-7.986-1.551-1.847-3.764-2.771-6.641-2.771z"/><path d="m426.33 43.704c1.615 0 3.065.133 4.35.398l-.764 5.113c-1.506-.332-2.834-.498-3.984-.498-2.944 0-5.462 1.195-7.554 3.586s-3.138 5.367-3.138 8.932v19.523h-5.512v-36.39h4.549l.631 6.74h.266c1.35-2.369 2.977-4.195 4.881-5.479 1.903-1.284 3.995-1.925 6.275-1.925z"/><path d="m544.18 68.241c0 4.051-1.489 7.26-4.466 9.629-2.978 2.368-6.934 3.553-11.87 3.553-5.933 0-10.481-.654-13.646-1.959v-3.387c3.497 1.482 7.958 2.225 13.381 2.225 3.984 0 7.144-.914 9.479-2.74s3.503-4.222 3.503-7.188c0-1.838-.388-3.359-1.162-4.566-.775-1.205-2.037-2.307-3.785-3.303-1.749-.996-4.316-2.07-7.703-3.221-4.958-1.705-8.384-3.547-10.276-5.529-1.893-1.98-2.839-4.62-2.839-7.918 0-3.631 1.422-6.592 4.267-8.883 2.844-2.291 6.502-3.436 10.974-3.436 4.56 0 8.843.863 12.85 2.59l-1.229 2.922c-4.029-1.683-7.88-2.523-11.555-2.523-3.586 0-6.441.83-8.566 2.49s-3.188 3.918-3.188 6.773c0 1.793.326 3.265.979 4.416.653 1.15 1.721 2.186 3.204 3.104 1.483.92 4.028 2.021 7.637 3.305 3.785 1.306 6.629 2.572 8.533 3.801 1.903 1.229 3.292 2.623 4.167 4.184.873 1.559 1.311 3.447 1.311 5.661z"/><path d="m566.143 81.423c-5.158 0-9.197-1.627-12.119-4.881s-4.383-7.792-4.383-13.613c0-5.977 1.516-10.631 4.549-13.963 3.032-3.33 7.183-4.996 12.451-4.996 3.121 0 6.109.542 8.965 1.627l-.896 2.922c-3.121-1.041-5.833-1.561-8.135-1.561-4.427 0-7.781 1.367-10.061 4.1-2.28 2.734-3.42 6.669-3.42 11.805 0 4.869 1.14 8.682 3.42 11.438s5.467 4.135 9.562 4.135c3.276 0 6.319-.587 9.131-1.76v3.055c-2.302 1.127-5.324 1.692-9.064 1.692z"/><path d="m606.685 80.759v-23.409c0-3.631-.764-6.27-2.291-7.92-1.527-1.648-3.896-2.473-7.105-2.473-4.316 0-7.477 1.09-9.479 3.27-2.003 2.182-3.005 5.717-3.005 10.609v19.922h-3.287v-51.664h3.287v16.436l-.166 4.615h.232c1.35-2.17 3.055-3.741 5.113-4.715 2.059-.975 4.615-1.461 7.67-1.461 8.189 0 12.285 4.394 12.285 13.182v23.607h-3.254z"/><path d="m648.979 62.663c0 5.888-1.428 10.486-4.283 13.795-2.855 3.311-6.796 4.965-11.82 4.965-3.166 0-5.955-.764-8.367-2.291-2.413-1.527-4.262-3.719-5.545-6.574-1.284-2.855-1.926-6.154-1.926-9.895 0-5.889 1.428-10.477 4.283-13.764s6.773-4.93 11.754-4.93c4.958 0 8.849 1.666 11.671 4.996 2.822 3.333 4.233 7.898 4.233 13.698zm-28.488 0c0 4.958 1.09 8.826 3.271 11.604 2.18 2.779 5.263 4.168 9.247 4.168s7.066-1.389 9.247-4.168c2.18-2.777 3.271-6.646 3.271-11.604 0-4.98-1.102-8.844-3.304-11.588-2.203-2.745-5.296-4.117-9.28-4.117s-7.056 1.367-9.214 4.1c-2.159 2.734-3.238 6.602-3.238 11.605z"/><path d="m686.566 62.663c0 5.888-1.428 10.486-4.283 13.795-2.855 3.311-6.796 4.965-11.82 4.965-3.166 0-5.955-.764-8.367-2.291-2.413-1.527-4.262-3.719-5.545-6.574-1.284-2.855-1.926-6.154-1.926-9.895 0-5.889 1.428-10.477 4.283-13.764s6.773-4.93 11.754-4.93c4.958 0 8.849 1.666 11.671 4.996 2.822 3.333 4.233 7.898 4.233 13.698zm-28.488 0c0 4.958 1.09 8.826 3.271 11.604 2.18 2.779 5.263 4.168 9.247 4.168s7.066-1.389 9.247-4.168c2.18-2.777 3.271-6.646 3.271-11.604 0-4.98-1.102-8.844-3.304-11.588-2.203-2.745-5.296-4.117-9.28-4.117s-7.056 1.367-9.214 4.1c-2.159 2.734-3.238 6.602-3.238 11.605z"/><path d="m697.345 80.759h-3.287v-51.665h3.287z"/></g><path d="m470.649 33.148v49.116" fill="none" stroke="#23d96c" stroke-miterlimit="10" stroke-width="2.0591"/></svg>