<?xml version="1.0" encoding="utf-8"?>
<!-- Generator: Adobe Illustrator 23.1.1, SVG Export Plug-In . SVG Version: 6.00 Build 0)  -->
<svg version="1.1" id="Layer_1" xmlns="http://www.w3.org/2000/svg" xmlns:xlink="http://www.w3.org/1999/xlink" x="0px" y="0px"
	 viewBox="0 0 604 572" style="enable-background:new 0 0 604 572;" xml:space="preserve">
<style type="text/css">
	.st0{opacity:0.3;}
	.st1{fill:none;stroke:#758491;stroke-width:1.018;stroke-miterlimit:10;}
	.st2{fill:none;stroke:#2FB568;stroke-width:1.018;stroke-miterlimit:10;}
	.st3{opacity:0.8;}
	.st4{opacity:0.8;fill:none;stroke:#758491;stroke-width:1.018;stroke-miterlimit:10;enable-background:new    ;}
</style>
<g>
	<g id="Group_21" transform="translate(8.184 -17.261)" class="st0">
		<path id="Path_32" class="st1" d="M118.7,451.9c-1,11.1-10.9,19.2-22,18.2s-19.2-10.9-18.2-22c1-11.1,10.9-19.2,22-18.2
			c0,0,0,0,0,0l0,0C111.7,431,119.8,440.9,118.7,451.9z"/>
		<path id="Path_34" class="st1" d="M71.5,336.7c8.6,9.8,7.6,24.7-2.1,33.3c-9.8,8.6-24.7,7.6-33.3-2.1c-8.6-9.8-7.6-24.7,2.1-33.3
			c1.2-1.1,2.5-2,3.9-2.8C51.8,326.2,64.1,328.2,71.5,336.7z"/>
		<path id="Path_35" class="st1" d="M69.5,422.3l-5.1,7.1c-0.9,1.3-1.2,2.9-0.7,4.4l2.9,9.4c0.2,0.6,0.3,1.3,0.2,2l-0.3,3.4
			c-0.1,0.7-0.3,1.3-0.6,1.9l-4.7,8.7c-0.8,1.4-0.8,3.1-0.1,4.5l2.6,5.7c0.7,1.4,1.9,2.5,3.5,2.8l9.6,2.2c0.7,0.2,1.3,0.4,1.8,0.8
			l2.8,2c0.6,0.4,1,0.9,1.3,1.5l5.2,8.4c0.8,1.3,2.2,2.2,3.8,2.3L98,490c1.6,0.1,3.1-0.4,4.2-1.6l6.7-7.3c0.4-0.5,1-0.9,1.6-1.1
			l3.1-1.5c0.6-0.3,1.2-0.4,1.9-0.4l9.8-0.3c1.6,0,3-0.8,3.9-2.1l3.7-5.1c0.9-1.3,1.2-2.9,0.7-4.4l-2.9-9.4c-0.2-0.6-0.3-1.3-0.2-2
			l0.3-3.4c0.1-0.7,0.3-1.3,0.6-1.9l4.7-8.7c0.8-1.4,0.8-3.1,0.1-4.5l-2.6-5.7c-0.7-1.4-1.9-2.5-3.5-2.8l-9.6-2.2
			c-0.7-0.2-1.3-0.4-1.8-0.8l-2.8-2c-0.6-0.4-1-0.9-1.3-1.5l-5.2-8.4c-0.8-1.3-2.2-2.2-3.8-2.3l-6.2-0.6c-1.6-0.1-3.1,0.4-4.2,1.6
			l-5.7,6.2c-2.3,2.6-6.3,2.8-8.9,0.5c-0.1-0.1-0.3-0.3-0.4-0.4c-0.1-0.2-0.3-0.3-0.4-0.5l-11-15.4c-0.7-0.9-2-1.2-2.9-0.5
			c-0.3,0.3-0.6,0.6-0.8,0.9l-2.7,7.2c-0.4,1.3-1.5,2.1-2.8,2.3c-1.3,0.1-2.6-0.5-3.2-1.7l-3.7-6.5c-0.6-1-1.5-1.6-2.6-1.7h-0.4
			c-1.1-0.1-2.2,0.4-2.8,1.3l-4.6,5.8c-0.8,1-2.1,1.5-3.4,1.1c-1.3-0.3-2.2-1.4-2.5-2.6l-1.1-7.3c-0.2-1.1-0.9-2-1.9-2.5l-0.4-0.2
			c-1-0.4-2.2-0.4-3.1,0.2l-6.4,3.9c-1.1,0.7-2.5,0.6-3.6-0.1c-1.1-0.7-1.6-2.1-1.4-3.3l1.4-7.3c0.2-1.1-0.1-2.2-0.9-3l-0.3-0.3
			c-0.8-0.8-1.9-1.1-3-0.9l-7.3,1.5c-1.3,0.3-2.6-0.3-3.3-1.3c-0.8-1.1-0.8-2.5-0.1-3.6l3.8-6.4c0.6-0.9,0.6-2.1,0.1-3.1l-0.2-0.3
			c-0.5-1-1.4-1.7-2.5-1.8l-7.4-1.1c-1.8-0.3-3.1-2-2.8-3.8c0.1-0.8,0.5-1.5,1.2-2.1l5.7-4.7c0.9-0.7,1.3-1.8,1.2-2.9l-0.1-0.4
			c-0.1-1.1-0.8-2-1.7-2.6l-6.6-3.5c-1.1-0.6-1.8-1.9-1.7-3.2c0.1-1.3,1-2.4,2.2-2.8l7-2.5c1-0.3,1.8-1.2,2.1-2.3l0.1-0.4
			c0.3-1.1,0-2.2-0.8-3l-4.9-5.6c-0.9-1-1.1-2.4-0.5-3.6c0.6-1.2,1.7-1.9,3-2l7.4,0.1c1.1,0,2.2-0.5,2.8-1.5l0.2-0.3
			c0.6-0.9,0.8-2.1,0.4-3.1l-2.7-6.9c-0.5-1.2-0.2-2.6,0.7-3.5c0.9-1,2.3-1.3,3.5-0.8l6.9,2.6c1,0.4,2.2,0.2,3.1-0.4l0.3-0.3
			c0.9-0.6,1.4-1.7,1.4-2.8l-0.2-7.4c-0.1-1.8,1.4-3.3,3.2-3.4c0.8,0,1.6,0.3,2.3,0.8l5.7,4.9c0.8,0.7,2,1,3,0.7l0.4-0.1
			c1.1-0.3,1.9-1.1,2.3-2.1l2.3-7.1 M118.5,262.8l-2.7-6.9c-0.4-1-0.2-2.2,0.4-3.1l0.2-0.3c0.6-0.9,1.7-1.4,2.8-1.5l7.4,0.1
			c1.3,0,2.5-0.8,3-2c0.5-1.2,0.3-2.6-0.5-3.6l-4.9-5.6c-0.7-0.8-1-2-0.8-3l0.1-0.4c0.3-1.1,1-1.9,2.1-2.3l7-2.5
			c1.2-0.4,2.1-1.5,2.2-2.8c0.1-1.3-0.6-2.5-1.7-3.2l-6.6-3.5c-1-0.5-1.6-1.5-1.7-2.6l-0.1-0.4c-0.1-1.1,0.3-2.2,1.2-2.9l5.7-4.7
			c1.4-1.2,1.6-3.3,0.4-4.7c-0.5-0.6-1.3-1-2.1-1.2l-7.4-1.1c-1.1-0.2-2-0.9-2.5-1.8l-0.2-0.3c-0.5-1-0.4-2.2,0.1-3.1l3.8-6.4
			c0.7-1.1,0.6-2.5-0.1-3.6c-0.8-1.1-2.1-1.6-3.3-1.3l-7.3,1.5c-1.1,0.2-2.2-0.1-3-0.9l-0.3-0.3c-0.8-0.8-1.1-1.9-0.9-3l1.4-7.3
			c0.2-1.3-0.3-2.6-1.4-3.3c-1.1-0.7-2.5-0.8-3.6-0.1l-6.4,3.9c-0.9,0.6-2.1,0.6-3.1,0.2l-0.4-0.2c-1-0.5-1.7-1.4-1.9-2.5l-1.2-7.3
			c-0.2-1.3-1.2-2.3-2.5-2.6c-1.3-0.3-2.6,0.1-3.4,1.1l-4.6,5.8c-0.7,0.9-1.7,1.3-2.8,1.3h-0.4c-1.1-0.1-2.1-0.7-2.6-1.7l-3.7-6.5
			c-0.7-1.1-1.9-1.8-3.2-1.7c-1.3,0.1-2.4,1-2.8,2.3l-2.4,7.1c-0.4,1-1.2,1.8-2.3,2.1l-0.4,0.1c-1.1,0.3-2.2,0.1-3-0.7l-5.7-4.9
			c-1-0.8-2.4-1-3.6-0.5c-1.2,0.6-1.9,1.8-1.9,3.1l0.2,7.4c0,1.1-0.5,2.1-1.4,2.8l-0.3,0.3c-0.9,0.7-2.1,0.8-3.1,0.4l-6.9-2.6
			c-1.2-0.4-2.6-0.1-3.5,0.8c-0.9,0.9-1.2,2.3-0.7,3.5l2.7,6.9c0.4,1,0.2,2.2-0.4,3.1l-0.2,0.3c-0.6,0.9-1.7,1.4-2.8,1.5l-7.4-0.1
			c-1.3,0-2.5,0.8-3,2c-0.5,1.2-0.3,2.6,0.5,3.6l4.9,5.6c0.7,0.8,1,2,0.8,3l-0.1,0.4c-0.3,1.1-1,1.9-2.1,2.3l-6.9,2.3
			c-1.2,0.4-2.1,1.5-2.2,2.8c-0.1,1.3,0.6,2.5,1.7,3.2l6.6,3.6c1,0.5,1.6,1.5,1.7,2.6l0.1,0.4c0.1,1.1-0.3,2.2-1.2,2.9l-5.7,4.7
			c-1.4,1.2-1.6,3.3-0.4,4.7c0.5,0.6,1.3,1,2.1,1.2l7.4,1.1c1.1,0.2,2,0.9,2.5,1.8l0.2,0.3c0.5,1,0.4,2.2-0.1,3.1l-3.8,6.4
			c-0.7,1.1-0.6,2.5,0.1,3.6c0.8,1.1,2.1,1.6,3.3,1.3l7.3-1.4c0.2-0.1,0.4-0.1,0.6,0c1.4,0.2,2.5,1.1,3,2.5l14.1,37.9
			c0.4,1.1,1.2,2.1,2.2,2.6c0.3,0.1,0.6,0.2,0.9,0.3h0.4c1.1,0.1,2.2-0.4,2.8-1.3l4.6-5.8c0.8-1,2.1-1.5,3.4-1.1
			c1.3,0.3,2.2,1.4,2.5,2.6l1.2,7.3c0.2,1.1,0.9,2,1.9,2.5l0.4,0.2c1,0.4,2.2,0.4,3.1-0.2l6.4-3.9c1.1-0.7,2.5-0.6,3.6,0.1
			c1.1,0.7,1.6,2.1,1.4,3.3l-1.4,7.3c-0.2,1.1,0.1,2.2,0.9,3l0.3,0.3c0.8,0.8,1.9,1.1,3,0.9l7.3-1.5c1.3-0.3,2.6,0.3,3.3,1.3
			c0.8,1.1,0.8,2.5,0.1,3.6l-3.8,6.4c-0.6,0.9-0.6,2.1-0.1,3.1l0.2,0.3c0.5,1,1.4,1.7,2.5,1.8l7.4,1.1c1.8,0.3,3.1,2,2.8,3.8
			c-0.1,0.8-0.5,1.5-1.2,2.1l-5.7,4.7c-0.9,0.7-1.3,1.8-1.2,2.9l0.1,0.4c0.1,1.1,0.8,2,1.7,2.6l6.6,3.5c1.1,0.6,1.8,1.9,1.7,3.2
			c-0.1,1.3-1,2.4-2.2,2.8l-7,2.5c-1,0.3-1.8,1.2-2.1,2.3l-0.1,0.4c-0.3,1.1,0,2.2,0.8,3l4.9,5.6c0.9,1,1.1,2.4,0.5,3.6
			c-0.6,1.2-1.7,1.9-3,2l-7.4-0.1c-1.1,0-2.2,0.5-2.8,1.5l-0.2,0.3c-0.6,0.9-0.8,2.1-0.4,3.1l2.7,6.9c0.5,1.2,0.2,2.6-0.7,3.5
			c-0.9,0.9-2.3,1.2-3.5,0.8l-6.9-2.6c-1-0.4-2.2-0.2-3.1,0.4l-0.3,0.3c-0.9,0.6-1.4,1.7-1.4,2.8 M56.2,272.3l1.2,7.3
			c0.3,1.8,2,3,3.9,2.7c0.8-0.1,1.5-0.6,2-1.2l4.6-5.8c0.7-0.9,1.7-1.3,2.8-1.3h0.4c1.1,0.1,2.1,0.7,2.6,1.7l3.7,6.5
			c0.6,1.1,1.9,1.8,3.2,1.6c1.3-0.1,2.4-1,2.8-2.3l2.3-7.1c0.4-1,1.2-1.8,2.3-2.1l0.4-0.1c1.1-0.3,2.2-0.1,3,0.7l5.7,4.9
			c1,0.8,2.4,1,3.6,0.5c1.2-0.6,1.9-1.8,1.9-3.1l-0.2-7.4c0-1.1,0.5-2.1,1.4-2.8l0.3-0.3l0,0c1.2-0.8,2.7-0.7,3.8,0.2l22.2,17.6
			 M94.2,210.5c7.5,10.7,4.9,25.4-5.7,32.9c-10.6,7.5-25.2,5-32.8-5.5l0,0c-7.5-10.7-4.9-25.4,5.7-32.9
			C72,197.5,86.6,200,94.2,210.5z"/>
	</g>
	<g>
		<path id="Path_33" class="st2" d="M396.6,494.2c9.7,13.6,6.5,32.5-7.1,42.2c-13.6,9.7-32.5,6.5-42.2-7.1
			c-9.7-13.6-6.5-32.5,7.1-42.2l0,0C368,477.4,386.9,480.5,396.6,494.2C396.6,494.1,396.6,494.2,396.6,494.2z"/>
		<path id="Path_36" class="st2" d="M335.6,391.5c4.5,12.2-1.8,25.8-14.1,30.3c-12.2,4.5-25.8-1.8-30.3-14.1
			c-4.5-12.2,1.8-25.8,14.1-30.3C317.6,372.9,331.1,379.2,335.6,391.5z M574.7,343.7c5.1,7.1,3.4,16.9-3.7,22
			c-7.1,5.1-16.9,3.4-22-3.7c-5.1-7.1-3.4-16.9,3.7-22C559.8,335,569.6,336.6,574.7,343.7z"/>
		<path id="Path_39" class="st2" d="M127,264.2l-2.1,3.5l-2.3,1.6l-5.2,1.2c-1,0.2-1.9,0.9-2.3,1.9l-1.1,2.4c-0.4,0.9-0.4,2,0.1,3
			l2.5,4.7l0.3,2.8l-1.6,5.2c-0.3,1-0.1,2.1,0.4,2.9l1.5,2.1c0.6,0.8,1.6,1.3,2.6,1.4l5.4,0.2l2.6,1.2l3.7,4
			c0.7,0.8,1.7,1.2,2.8,1.1l2.6-0.3c1-0.1,2-0.7,2.5-1.6l2.8-4.5l2.3-1.6l5.2-1.2c1-0.2,1.9-0.9,2.3-1.9l1.1-2.4
			c0.4-0.9,0.4-2-0.1-3l-2.5-4.7l-0.3-2.8l1.6-5.2c0.3-1,0.1-2.1-0.4-2.9l-1.5-2.1c-0.6-0.8-1.6-1.3-2.6-1.4l-4.2-0.1
			c-0.8,0-1.6-0.2-2.3-0.6l-0.4-0.2c-0.7-0.4-1.3-0.9-1.9-1.4 M140.2,277.5c2.6,3.7,1.8,8.9-2,11.5c-3.7,2.6-8.9,1.8-11.5-2
			c-2.6-3.7-1.8-8.9,2-11.5C132.4,272.9,137.6,273.8,140.2,277.5z M464,394.5l-3.8,11.5c-0.5,1.6-2,2.6-3.7,2.6l-12.1-0.1
			c-1.6,0-3.1-1.1-3.6-2.6l-3.7-11.5c-0.5-1.6,0.1-3.3,1.5-4.2l9.8-7c1.3-1,3.2-0.9,4.5,0.1l9.7,7.2C464,391.3,464.6,393,464,394.5
			L464,394.5z M348,466.2l-0.3,0.2c-1.1,0.6-2.3,0.5-3.3-0.3l-2.6-1.9c-1.1-0.8-2.6-0.8-3.7,0c-1.1,0.8-1.6,2.1-1.2,3.4l0.9,3.1
			c0.3,1.1,0,2.4-0.9,3.2l-0.3,0.3c-0.9,0.8-2.1,1.1-3.2,0.6l-3-1.1c-1.3-0.5-2.7-0.1-3.5,0.9c-0.8,1-0.9,2.5-0.3,3.6l1.7,2.8
			c0.6,1,0.6,2.3,0,3.3l-0.2,0.3c-0.6,1-1.8,1.6-3,1.5l-3.2-0.3c-1.3-0.1-2.6,0.6-3.2,1.8c-0.5,1.2-0.3,2.7,0.7,3.6l2.3,2.2
			c0.9,0.8,1.2,2,0.8,3.2l-0.1,0.3c-0.4,1.1-1.3,1.9-2.5,2.1l-3.2,0.5c-1.7,0.3-2.9,1.9-2.6,3.6c0.2,0.9,0.7,1.8,1.6,2.2l2.8,1.5
			c1.1,0.5,1.7,1.7,1.6,2.8v0.4c0,1.2-0.7,2.2-1.8,2.7l-3,1.3c-1.2,0.6-1.9,1.8-1.8,3.2c0.1,1.3,1.1,2.4,2.4,2.7l3.2,0.8
			c1.2,0.3,2.1,1.2,2.3,2.3l0.1,0.3c0.3,1.2-0.2,2.4-1.1,3.1l-2.5,2c-1,0.9-1.4,2.3-0.9,3.5c0.5,1.3,1.7,2.1,3,2l3.2-0.1
			c1.2,0,2.3,0.6,2.8,1.6l0.2,0.3c0.6,1.1,0.5,2.3-0.3,3.3l-1.9,2.6c-0.8,1.1-0.8,2.6,0,3.7c0.8,1.1,2.1,1.6,3.4,1.2l3.1-0.9
			c1.1-0.3,2.4,0,3.2,0.9l0.3,0.3c0.8,0.9,1.1,2.1,0.6,3.2l-1.1,3c-0.5,1.3-0.1,2.7,0.9,3.5c1,0.8,2.5,0.9,3.6,0.3l2.8-1.7
			c1-0.6,2.3-0.6,3.3,0l0.3,0.2c1,0.6,1.6,1.8,1.5,3l-0.3,3.2c-0.1,1.3,0.6,2.6,1.8,3.2c1.2,0.6,2.7,0.3,3.6-0.7l2.2-2.3
			c0.8-0.9,2-1.2,3.2-0.8l0.3,0.1c1.1,0.4,1.9,1.3,2.1,2.5l0.5,3.2c0.3,1.7,1.9,2.9,3.6,2.6c0.9-0.2,1.8-0.7,2.2-1.6l1.5-2.8
			c0.5-1,1.7-1.7,2.8-1.6h0.4c1.2,0,2.2,0.7,2.7,1.8l1.3,3c0.6,1.2,1.8,1.9,3.2,1.8c1.3-0.1,2.4-1.1,2.7-2.4l0.8-3.2
			c0.3-1.2,1.2-2.1,2.3-2.3l0.3-0.1c1.2-0.3,2.4,0.1,3.1,1.1l2,2.5c0.9,1,2.3,1.4,3.5,0.9c1.3-0.5,2.1-1.7,2-3l-0.1-3.2
			c0-1.2,0.6-2.3,1.6-2.8l0.3-0.2c1.1-0.6,2.3-0.5,3.3,0.3l2.6,1.9c1.1,0.8,2.6,0.8,3.7,0c1.1-0.8,1.6-2.1,1.2-3.4l-0.9-3.1
			c-0.3-1.1,0-2.4,0.9-3.2l0.3-0.3c0.9-0.8,2.1-1.1,3.2-0.6l3,1.1c1.3,0.5,2.7,0.1,3.5-0.9c0.8-1,0.9-2.5,0.3-3.6l-1.7-2.8
			c-0.6-1-0.6-2.3,0-3.3l0.2-0.3c0.6-1,1.8-1.6,3-1.5l3.2,0.3c1.3,0.1,2.6-0.6,3.2-1.8c0.6-1.2,0.3-2.7-0.7-3.6l-2.3-2.2
			c-0.9-0.8-1.2-2-0.8-3.2l0.1-0.3c0.4-1.1,1.3-1.9,2.5-2.1l3.2-0.5c1.7-0.3,2.9-1.9,2.6-3.6c-0.2-0.9-0.7-1.8-1.6-2.2l-2.8-1.5
			c-1.1-0.5-1.7-1.7-1.6-2.8v-0.4c0-1.2,0.7-2.2,1.8-2.7l3-1.3c1.2-0.6,1.9-1.8,1.8-3.2c-0.1-1.3-1.1-2.4-2.4-2.7l-3.2-0.8
			c-1.2-0.3-2.1-1.2-2.3-2.3l-0.1-0.3c-0.3-1.2,0.2-2.4,1.1-3.1l2.5-2c1-0.9,1.4-2.3,0.9-3.5c-0.5-1.3-1.7-2.1-3-2l-3.2,0.1
			c-1.2,0-2.3-0.6-2.8-1.6l-0.2-0.3c-0.6-1.1-0.5-2.3,0.3-3.3l1.9-2.6c0.8-1.1,0.8-2.6,0-3.7c-0.8-1.1-2.1-1.6-3.4-1.2l-3.1,0.9
			c-1.1,0.3-2.4,0-3.2-0.9l-0.3-0.3c-0.8-0.9-1.1-2.1-0.6-3.2l1.1-3c0.6-1.6-0.2-3.4-1.8-4c-0.9-0.3-1.9-0.3-2.7,0.2l-2.6,1.6
			c-1,0.6-2.3,0.6-3.3,0c-1.2-0.7-1.8-2.1-1.6-3.5l5.4-37.1c0.1-0.5,0.1-0.9,0-1.4l-8.5-27.1c-0.2-0.5-0.4-0.8-0.8-1.1l-10.7-8
			c-2.5-1.8-3.5-5.1-2.5-8.1l5.4-16.1c1-2.9,3.8-4.9,6.9-4.9l13.4,0.1c0.5,0,0.9-0.1,1.3-0.4l23.2-16.5c0.4-0.3,0.7-0.6,0.8-1.1
			l4.2-12.7c1-2.9,3.8-4.9,6.9-4.9l17,0.2c3.1,0,5.9,2.1,6.8,5l4,12.7c0.2,0.5,0.4,0.8,0.8,1.1l23,17c0.3,0.2,0.7,0.4,1.1,0.4
			l34.5,3.9c0.8,0.1,1.4,0.6,1.8,1.3l0.1,0.2c0.3,0.7,0.3,1.4-0.1,2.1l-2.5,4.3c-0.4,0.8-0.4,1.7,0.1,2.4c0.5,0.7,1.4,1.1,2.3,0.9
			l4.9-1c0.7-0.1,1.5,0.1,2,0.6l0.2,0.2c0.5,0.5,0.7,1.2,0.6,2l-0.9,4.9c-0.2,0.9,0.2,1.7,0.9,2.2c0.7,0.5,1.7,0.5,2.4,0.1l4.2-2.6
			c0.6-0.4,1.4-0.4,2.1-0.1l0.3,0.1c0.7,0.3,1.1,0.9,1.3,1.6l0.8,4.9c0.1,0.9,0.8,1.6,1.6,1.8c0.8,0.2,1.7-0.1,2.3-0.8l3.1-3.8
			c0.5-0.6,1.2-0.9,1.9-0.8h0.3c0.7,0.1,1.4,0.5,1.8,1.1l2.5,4.3c0.4,0.8,1.3,1.2,2.1,1.1c0.9-0.1,1.6-0.7,1.9-1.5l1.6-4.7
			c0.2-0.7,0.8-1.2,1.5-1.5l0.3-0.1c0.7-0.2,1.5,0,2,0.4l3.8,3.2c0.9,0.8,2.3,0.7,3.1-0.2c0.4-0.4,0.6-1,0.5-1.5l-0.1-5
			c0-0.7,0.3-1.4,0.9-1.8l0.2-0.1c0.6-0.4,1.4-0.5,2.1-0.3l4.7,1.8c0.8,0.3,1.7,0.1,2.3-0.5c0.6-0.6,0.8-1.5,0.5-2.3l-1.8-4.6
			c-0.3-0.7-0.2-1.5,0.3-2.1l0.1-0.2c0.4-0.6,1.1-1,1.8-0.9l5,0.1c0.9,0,1.7-0.5,2-1.3c0.4-0.8,0.2-1.8-0.4-2.4l-3.3-3.7
			c-0.5-0.5-0.7-1.3-0.5-2l0.1-0.3c0.2-0.7,0.7-1.3,1.4-1.5l4.7-1.6c0.8-0.3,1.4-1,1.5-1.9c0.1-0.9-0.4-1.7-1.1-2.1l-4.4-2.4
			c-0.6-0.4-1-1-1.1-1.7v-0.3c-0.1-0.7,0.2-1.4,0.8-1.9l3.8-3.2c0.9-0.7,1.1-2.1,0.4-3c-0.4-0.5-0.9-0.8-1.5-0.8l-4.9-0.8
			c-0.7-0.1-1.3-0.6-1.6-1.3l-0.1-0.3c-0.3-0.7-0.3-1.4,0.1-2.1l2.5-4.3c0.4-0.8,0.4-1.7-0.1-2.4c-0.5-0.7-1.4-1.1-2.3-0.9l-4.9,1
			c-0.7,0.1-1.5-0.1-2-0.6l-0.2-0.2c-0.5-0.5-0.7-1.2-0.6-2l0.9-4.9c0.2-0.9-0.2-1.7-0.9-2.2c-0.7-0.5-1.7-0.5-2.4-0.1l-4.2,2.6
			c-0.6,0.4-1.4,0.4-2.1,0.1l-0.3-0.1c-0.7-0.3-1.1-0.9-1.3-1.6l-0.8-4.9c-0.1-0.9-0.8-1.6-1.6-1.8c-0.8-0.2-1.7,0.1-2.3,0.8
			l-3.1,3.8c-0.5,0.6-1.2,0.9-1.9,0.8h-0.3c-0.7-0.1-1.4-0.5-1.8-1.1l-2.5-4.3c-0.4-0.8-1.3-1.2-2.1-1.1c-0.9,0.1-1.6,0.7-1.9,1.5
			l-1.6,4.7c-0.2,0.7-0.8,1.2-1.5,1.5l-0.3,0.1c-0.7,0.2-1.5,0-2-0.4l-3.8-3.2c-0.9-0.8-2.3-0.7-3.1,0.2c-0.4,0.4-0.6,1-0.5,1.5
			l0.1,5c0,0.7-0.3,1.4-0.9,1.8l-0.2,0.1c-0.6,0.4-1.4,0.5-2.1,0.3l-4.7-1.8c-0.8-0.3-1.7-0.1-2.3,0.5c-0.6,0.6-0.8,1.5-0.5,2.3
			l1.8,4.6c0.3,0.7,0.2,1.5-0.3,2.1l-0.1,0.2c-0.4,0.6-1.1,1-1.8,0.9l-5-0.1c-0.9,0-1.7,0.5-2,1.3c-0.4,0.8-0.2,1.8,0.4,2.4l3.3,3.7
			c0.5,0.5,0.7,1.3,0.5,2l-0.1,0.3c-0.2,0.7-0.7,1.3-1.4,1.5l-4.7,1.6c-0.8,0.3-1.4,1-1.5,1.9c-0.1,0.9,0.4,1.7,1.1,2.1l5.4,2.9
			 M385,461.9l-0.8-5.1c-0.3-1.7-1.9-2.9-3.6-2.6c-0.9,0.2-1.8,0.7-2.2,1.6l-1.5,2.8c-0.5,1-1.7,1.7-2.8,1.6h-0.4
			c-1.2,0-2.2-0.7-2.7-1.8l-1.3-3c-0.6-1.2-1.8-1.9-3.2-1.8c-1.3,0.1-2.4,1.1-2.7,2.4l-0.8,3.2c-0.1,0.2-0.1,0.4-0.3,0.6
			c-0.9,1.2-2.5,1.5-3.8,0.8l-25-13.6c-0.9-0.6-2.1-0.8-3.1-0.4l-0.4,0.1c-1,0.4-1.8,1.3-2.1,2.3l-1.8,7.2c-0.5,1.8-2.3,2.9-4.1,2.4
			c-0.8-0.2-1.5-0.7-1.9-1.3l-4.2-6.2c-0.6-0.9-1.7-1.5-2.8-1.5h-0.4c-1.1,0-2.1,0.5-2.8,1.5l-4.2,6.2c-0.7,1.1-2.1,1.6-3.3,1.4
			c-1.3-0.2-2.3-1.2-2.6-2.5l-1.8-7.2c-0.3-1.1-1-1.9-2.1-2.3l-0.4-0.1c-1-0.4-2.2-0.2-3.1,0.4l-6,4.4c-1.1,0.8-2.5,0.8-3.6,0.2
			c-1.1-0.6-1.8-1.9-1.6-3.2l0.8-7.4c0.1-1.1-0.3-2.2-1.2-2.9l-0.3-0.3c-0.8-0.7-2-0.9-3-0.6l-7.1,2.1c-1.3,0.4-2.6-0.1-3.5-1.1
			c-0.8-1-1-2.4-0.4-3.6l3.3-6.7c0.5-1,0.4-2.2-0.1-3.1l-0.2-0.3c-0.6-1-1.5-1.6-2.6-1.6l-7.4-0.5c-1.3-0.1-2.4-0.9-2.9-2.1
			c-0.4-1.2-0.1-2.6,0.8-3.5l5.4-5.2c0.8-0.8,1.2-1.9,0.9-3l-0.1-0.4c-0.2-1.1-0.9-2-1.9-2.5l-6.8-3c-1.7-0.8-2.4-2.7-1.7-4.4
			c0.3-0.7,0.9-1.3,1.7-1.7l6.8-3c1-0.5,1.7-1.4,1.9-2.5l0.1-0.4c0.2-1.1-0.2-2.2-0.9-3 M522.4,388.2L507.2,399
			c-0.4,0.3-0.7,0.6-0.8,1.1l-9.1,27c-0.1,0.5-0.1,0.9,0,1.4l4,12.7c1,3-0.1,6.2-2.7,8l-13.8,9.8c-2.5,1.8-5.9,1.8-8.4-0.1
			l-10.7-7.9c-0.4-0.3-0.8-0.4-1.3-0.4l-28.5-0.3c-0.5,0-0.9,0.1-1.3,0.4l-13.8,9.8 M431,376.9l-7.8,23.2c-1.1,3.3,0.1,6.9,2.8,9
			l19.7,14.6c2.8,2.1,6.6,2.1,9.4,0.1l19.9-14.2c2.8-2,4-5.6,3-8.9l-7.3-23.3c-1-3.3-4.1-5.5-7.5-5.6l-24.5-0.3
			C435.2,371.5,432.1,373.7,431,376.9L431,376.9z"/>
		<path id="Path_41" class="st2" d="M174.4,363.7l3.7-10.9c0.4-1.2,1.6-2,2.8-2l11.4,0.1c1.3,0,2.4,0.8,2.8,2.1l3.4,10.9
			c0.4,1.2-0.1,2.6-1.1,3.3l-9.3,6.6c-1,0.8-2.5,0.7-3.5-0.1l-9.2-6.8C174.3,366.2,173.9,364.9,174.4,363.7L174.4,363.7z
			 M248.1,379.3l-2.7,6.1c-3.2,6.5-4.3,8.1-9.8,8.1l-6.4-0.1c-2.5,0-5,0.8-7,2.2l-15.5,11c-2,1.4-3.6,3.5-4.4,5.8l-2.5,7.6
			c-1,3.1-3.8,5.1-7,5h-0.2l-13.8-0.1c-3.1,0-5.9-2.1-6.8-5l-2.5-7.8c-0.8-2.4-2.2-4.5-4.2-6l-15.3-11.3c-2-1.5-4.4-2.3-6.9-2.3
			l-8.1-0.1c-3.1,0-5.9-2.1-6.8-5L124,374c-1-3,0.1-6.3,2.7-8.1l6.6-4.7c2-1.4,3.6-3.5,4.4-5.9l6.1-18c0.8-2.4,0.8-4.9,0.1-7.3
			l-2.5-7.8c-1-3,0.1-6.3,2.7-8.1l11.4-8.1c2.6-1.8,6-1.8,8.5,0.1l6.6,4.9c2,1.5,4.4,2.3,6.9,2.3l19.1,0.2c2.5,0,5-0.8,7-2.2
			l6.6-4.7c2.6-1.8,6-1.8,8.5,0.1l11.3,8.3c2.5,1.9,3.5,5.1,2.5,8.1l-2.6,7.8c-0.8,2.4-0.8,4.9-0.1,7.3l5.7,18.1
			c0.8,2.4,2.2,4.5,4.2,6l26.6,13.5c1.3,0.7,2.9,0.2,3.7-1.1l0,0l0.2-0.3c0.5-0.9,0.6-2.1,0.1-3.1l-3.3-6.7
			c-0.8-1.7-0.1-3.7,1.5-4.5c0.7-0.4,1.6-0.4,2.4-0.2l7.1,2c1.1,0.3,2.2,0.1,3-0.6l0.3-0.3c0.8-0.7,1.3-1.8,1.1-2.9l-0.8-7.4
			c-0.1-1.3,0.5-2.6,1.6-3.2c1.1-0.6,2.5-0.6,3.6,0.2l6,4.4c0.9,0.6,2.1,0.8,3.1,0.4l0.4-0.1c1-0.4,1.8-1.3,2.1-2.3l1.8-7.2
			c0.5-1.8,2.3-2.9,4.1-2.4c0.8,0.2,1.5,0.7,1.9,1.3l4.2,6.2c0.6,0.9,1.7,1.5,2.8,1.5h0.4c1.1,0,2.1-0.5,2.8-1.5l4.2-6.2
			c0.7-1.1,2.1-1.6,3.3-1.4c1.3,0.2,2.3,1.2,2.6,2.5l1.8,7.2c0.3,1.1,1,1.9,2.1,2.3l0.4,0.1c1,0.4,2.2,0.2,3.1-0.4l6-4.3
			c1.1-0.8,2.5-0.8,3.6-0.2c1.1,0.6,1.8,1.9,1.6,3.2l-0.8,7.4c-0.1,1.1,0.3,2.2,1.2,2.9l0.3,0.3c0.8,0.7,2,0.9,3,0.6l7.1-2.1
			c1.3-0.4,2.6,0.1,3.5,1.1c0.9,1,1,2.4,0.4,3.6l-3.3,6.7c-0.5,1-0.4,2.2,0.1,3.1l0.2,0.3c0.6,1,1.5,1.6,2.6,1.6l7.4,0.5
			c1.3,0.1,2.4,0.9,2.9,2.1c0.4,1.2,0.1,2.6-0.8,3.5l-5.4,5.2c-0.8,0.8-1.2,1.9-0.9,3l0.1,0.4c0.2,1.1,0.9,2,1.9,2.5l6.8,3
			c1.7,0.8,2.4,2.7,1.7,4.4c-0.3,0.7-0.9,1.3-1.7,1.7l-6.8,3c-1,0.5-1.7,1.4-1.9,2.5l-0.1,0.4c-0.2,1.1,0.2,2.2,0.9,3l5.4,5.2
			c1.3,1.3,1.4,3.4,0.1,4.7c-0.6,0.6-1.3,0.9-2.2,1l-7.4,0.5c-1.1,0.1-2.1,0.7-2.6,1.6l-0.2,0.3c-0.5,0.9-0.6,2.1-0.1,3.1l3.3,6.7
			c0.8,1.7,0.1,3.7-1.5,4.5c-0.7,0.4-1.6,0.4-2.4,0.2l-7.1-2c-1.1-0.3-2.2-0.1-3,0.6l-0.3,0.3c-0.8,0.7-1.3,1.8-1.1,2.9
			 M204.3,378.2l6.3-18.7c1.2-3.5,0-7.4-3-9.6l-15.9-11.7c-3-2.2-7.1-2.3-10.1-0.1l-16.1,11.5c-3,2.1-4.3,6-3.2,9.5l5.9,18.8
			c1.1,3.5,4.4,5.9,8.1,6l19.7,0.2C199.8,384,203.1,381.7,204.3,378.2L204.3,378.2z"/>
	</g>
	<g id="Group_24" transform="translate(129.459 -159.832)" class="st3">
		<path id="Path_38" class="st1" d="M387,413.9c8.6,9.8,7.6,24.7-2.1,33.3c-9.8,8.6-24.7,7.6-33.3-2.1c-8.6-9.8-7.6-24.7,2.1-33.3
			c1.2-1.1,2.5-2,3.9-2.8C367.3,403.4,379.6,405.5,387,413.9z"/>
		<path id="Path_37" class="st1" d="M268.2,425.4c7.6,10.6,5.1,25.4-5.6,32.9c-10.6,7.6-25.4,5.1-32.9-5.6
			c-7.6-10.6-5.1-25.4,5.6-32.9c0,0,0,0,0,0l0,0C245.9,412.3,260.6,414.8,268.2,425.4z"/>
		<path id="Path_40" class="st4" d="M162.6,338.3l3.7-11.1c0.6-1.7,2.2-2.8,3.9-2.8l11.7,0.1c1.8,0,3.3,1.2,3.8,2.8l3.5,11.2
			c0.5,1.7-0.1,3.5-1.5,4.5l-9.5,6.8c-1.4,1-3.4,1-4.8-0.1l-9.4-7C162.7,341.8,162,340,162.6,338.3L162.6,338.3z M229.2,287.8
			l-5.2,15.5c-0.6,1.8-0.6,3.7-0.1,5.6l7.2,22.9c0.6,1.8,1.7,3.4,3.2,4.5l10.1,7.5c1.8,1.4,2.6,3.8,1.8,5.9l-6.3,18.7
			c-0.8,2.1-2.8,3.6-5,3.6l-12.6-0.1c-1.9,0-3.8,0.6-5.3,1.7l-19.6,13.9c-1.6,1.1-2.7,2.7-3.3,4.5l-4,11.9c-0.8,2.1-2.8,3.6-5,3.6
			l-21.8-0.2c-2.3,0-4.3-1.5-5-3.7l-3.8-12c-0.6-1.8-1.7-3.4-3.2-4.5l-16-13c-1.5-1.1-3.4-1.8-5.3-1.8l-16.4-0.1 M195.8,355.4
			l7.3-21.8c1.2-3.7,0-7.8-3.2-10.1l-18.5-13.7c-3.1-2.3-7.4-2.4-10.6-0.1L152.2,323c-3.2,2.3-4.5,6.3-3.3,10l6.9,21.9
			c1.2,3.7,4.6,6.3,8.5,6.3l23,0.2C191.1,361.5,194.6,359.1,195.8,355.4L195.8,355.4z"/>
		<path id="Path_42" class="st1" d="M201.4,446.6c1-0.6,1.6-1.7,1.5-2.8l-0.1-0.5c-0.1-1.2-0.9-2.1-2-2.5l-10.8-3.5
			c-1.3-0.4-2.1-1.6-2-3c0.1-1.3,1.1-2.4,2.5-2.6l11.2-1.8c1.1-0.2,2.1-1,2.4-2.1l0.1-0.5c0.3-1.1-0.1-2.3-1-3l-9-7
			c-1-0.8-1.4-2.2-0.9-3.5c0.6-1.2,1.9-1.9,3.2-1.6l11.2,2.2c1.1,0.2,2.3-0.2,3-1.2l0.3-0.4c0.7-1,0.7-2.2,0.1-3.2l-6.1-9.7
			c-0.7-1.1-0.6-2.6,0.4-3.6c1-1,2.4-1.1,3.6-0.4l9.8,5.9c1,0.6,2.3,0.6,3.2-0.1l0.4-0.3c0.9-0.7,1.4-1.8,1.1-3l-2.4-11.2
			c-0.3-1.3,0.4-2.6,1.6-3.2c1.2-0.6,2.7-0.2,3.5,0.8l7.1,8.9c0.7,0.9,1.9,1.3,3,0.9l0.5-0.1c1.1-0.3,1.9-1.2,2.1-2.4l1.6-11.3
			c0.2-1.3,1.3-2.3,2.6-2.5c1.3-0.1,2.6,0.7,3,2l3.7,10.8c0.4,1.1,1.4,1.9,2.5,2l0.5,0.1c1.1,0.1,2.2-0.5,2.8-1.5l5.4-10.1
			c0.6-1.2,2-1.8,3.3-1.5c1.3,0.3,2.2,1.5,2.1,2.9l-0.3,11.4c0,1.2,0.7,2.2,1.7,2.7l0.4,0.2c1.1,0.5,2.3,0.3,3.2-0.5l8.4-7.6
			c1-0.9,2.5-1,3.6-0.3c1.1,0.8,1.6,2.2,1.1,3.5l-4.1,10.6c-0.4,1.1-0.1,2.3,0.7,3.1l0.4,0.4c0.8,0.8,2.1,1.1,3.2,0.6l10.5-4.3
			c1.3-0.5,2.7-0.1,3.5,1c0.8,1.1,0.7,2.6-0.2,3.6l-7.5,8.6c-0.8,0.9-0.9,2.1-0.4,3.2l0.2,0.4c0.5,1.1,1.6,1.7,2.7,1.6l11.4-0.4
			c1.6,0,3,1.2,3,2.9c0,1.1-0.5,2.1-1.5,2.6l-10,5.5c-1,0.6-1.6,1.7-1.5,2.8l0.1,0.5c0.1,1.1,27.9,32.7,27.9,32.7
			c1.5,2.1,3.9,3.4,6.6,3.5l14.2,0.4c1.1,0.1,2.2,0.3,3.2,0.8l4.4,2c1,0.5,1.9,1.1,2.6,2l9.7,10.4c1.8,1.9,4.3,2.9,6.9,2.6l8.5-0.8
			c2.6-0.3,4.9-1.7,6.3-3.9l7.5-12c0.6-1,1.3-1.8,2.3-2.4l3.9-2.8c0.9-0.6,1.9-1.1,3-1.3l13.9-3.2c2.5-0.6,4.7-2.3,5.8-4.7l3.5-7.8
			c1.1-2.4,1-5.1-0.3-7.4l-6.7-12.6c-0.5-1-0.8-2.1-0.9-3.2l-0.4-4.8c-0.1-1.1,0-2.2,0.3-3.3l4.2-13.6c0.8-2.5,0.3-5.2-1.2-7.4l-5-7
			c-1.5-2.1-3.9-3.4-6.6-3.5l-14.2-0.4c-1.1-0.1-2.2-0.3-3.2-0.8l-4.4-2c-1-0.5-1.9-1.1-2.6-2l-9.7-10.4c-1.8-1.9-4.3-2.9-6.9-2.6
			l-8.5,0.8c-2.6,0.3-4.9,1.7-6.3,3.9l-7.5,12c-0.6,1-1.3,1.8-2.3,2.4l-3.9,2.8c-0.9,0.6-1.9,1.1-3,1.3l-13.9,3.2
			c-2.5,0.6-4.7,2.3-5.8,4.7l-3.3,7.9c-1.1,2.4-1,5.1,0.3,7.4l6.7,12.6c0.5,1,0.8,2.1,0.9,3.2 M189.3,250l5.6-18
			c0.2-0.8,0.3-1.6,0.3-2.4l-0.6-5.7c-0.1-0.8-0.3-1.6-0.7-2.3l-7.4-13.9c-0.9-1.7-0.9-3.7-0.2-5.4l4.5-9.8c0.8-1.7,2.3-3,4.2-3.4
			l15.5-3.5c0.8-0.2,1.5-0.5,2.2-1l4.7-3.3c0.7-0.5,1.2-1.1,1.6-1.8l8.4-13.4c1-1.6,2.7-2.7,4.6-2.8l10.8-1c1.9-0.2,3.8,0.5,5,2
			l10.7,11.6c0.6,0.6,1.2,1.1,2,1.4l5.2,2.4c0.7,0.3,1.5,0.5,2.3,0.6l15.8,0.5c1.9,0.1,3.7,1,4.8,2.6l6.3,8.8
			c1.1,1.6,1.4,3.5,0.9,5.4l-4.7,15.1c-0.2,0.8-0.3,1.6-0.3,2.4l0.6,5.7c0.1,0.8,0.3,1.6,0.7,2.3l7.4,13.9c0.9,1.7,0.9,3.7,0.2,5.4
			l-4.5,9.8c-0.8,1.7-2.3,3-4.2,3.4l-15.5,3.5c-0.8,0.2-1.5,0.5-2.2,1l-4.7,3.3c-0.7,0.5-1.2,1.1-1.6,1.8l-8.4,13.4
			c-1,1.6-2.7,2.7-4.6,2.8l-10.8,1c-1.9,0.2-3.8-0.5-5-2l-10.7-11.6c-0.6-0.6-1.2-1.1-2-1.4l-3.3-1.5c-1.9-0.9-4.1-0.7-5.9,0.4
			L193,281.7c-1,0.7-2.2,1-3.4,1l-26.1-0.3c-1.3,0-2.5-0.4-3.6-1.2l-10.3-7.7c-2.1-1.6-5-1.6-7.2-0.1l-15.1,10.8
			c-2.2,1.5-3.1,4.3-2.3,6.8l3.8,12.3c0.4,1.2,0.4,2.6-0.1,3.8l-8.3,24.6c-0.4,1.2-1.2,2.3-2.3,3l-16.8,11.9c-1.6,1.2-2.5,3-2.6,4.9
			l-0.3,24.7c0,1.3,0.4,2.6,1.1,3.6l0.9,1.3c0.8,1,1.8,1.8,3,2.3l22.6,7.4c2.3,0.8,3.9,2.8,4.2,5.2l0.1,0.7c0.2,2.4-1,4.7-3.1,5.9
			l-20.8,11.6c-1.1,0.6-2,1.6-2.6,2.8l-0.6,1.3c-0.6,1.2-0.7,2.6-0.4,4l7.4,30.8c0.4,1.6,1.9,2.5,3.5,2.1c0,0,0,0,0,0
			c0.2-0.1,0.5-0.1,0.7-0.3l0.8-0.4c2-1.1,3.6-2.9,4.3-5.1c0.2-0.8,0.2-1.7-0.1-2.5l-2.1-4.5c-0.5-1.1-0.4-2.5,0.4-3.5l1.3-1.8
			c0.7-1,2-1.5,3.2-1.3l4.9,0.7c0.8,0.1,1.7-0.1,2.4-0.6l1.8-1.3c0.7-0.5,1.2-1.2,1.3-2.1l0.9-4.9c0.3-1.2,1.1-2.2,2.3-2.6l2.1-0.7
			c1.2-0.4,2.5-0.1,3.4,0.8l3.5,3.5c0.6,0.6,1.4,0.9,2.3,0.9h2.3c0.8,0,1.7-0.3,2.3-0.9l3.6-3.3c0.9-0.9,2.2-1.2,3.4-0.8l2.1,0.7
			c1.2,0.4,2.1,1.4,2.3,2.6l0.9,4.9c0.2,0.8,0.6,1.6,1.3,2.1l1.8,1.3c0.7,0.5,1.5,0.7,2.4,0.6l4.9-0.6c1.2-0.1,2.5,0.4,3.2,1.4
			l1.3,1.8c0.7,1,0.8,2.3,0.3,3.5l-2.1,4.4c-0.4,0.8-0.4,1.6-0.2,2.5l0.7,2.1c0.2,0.8,0.8,1.5,1.6,1.9l24.9,3c1.1,0,2.2,0.6,2.7,1.6
			l0.2,0.4c0.5,1,0.3,2.3-0.4,3.2l-7.5,8.6c-1.1,1.2-0.9,3,0.3,4.1c0.8,0.7,2,0.9,3,0.5l10.5-4.3c1.1-0.4,2.3-0.2,3.2,0.6l0.4,0.4
			c0.8,0.8,1.1,2,0.7,3.1l-4.1,10.6c-0.5,1.3-0.1,2.7,1.1,3.5c1.1,0.8,2.6,0.7,3.6-0.3l8.4-7.6c0.9-0.8,2.1-1,3.2-0.5l0.4,0.2
			c1.1,0.5,1.7,1.5,1.7,2.7l-0.3,11.4c0,1.3,0.9,2.5,2.1,2.9c1.3,0.3,2.7-0.3,3.3-1.5l5.4-10.1c0.5-1,1.6-1.6,2.8-1.5l0.5,0.1
			c1.2,0.1,2.1,0.9,2.5,2l3.7,10.8c0.4,1.3,1.7,2.1,3,2c1.3-0.1,2.4-1.2,2.6-2.5l1.6-11.3c0.2-1.1,1-2.1,2.1-2.4l0.5-0.1
			c1.1-0.3,2.3,0.1,3,1l7.1,8.9c0.8,1.1,2.3,1.4,3.5,0.8c1.2-0.6,1.9-1.9,1.6-3.2l-2.4-11.2c-0.3-1.1,0.2-2.3,1.1-3l0.4-0.3
			c1-0.7,2.2-0.7,3.2-0.1l9.8,5.9c1.2,0.7,2.6,0.5,3.6-0.4c1-1,1.1-2.5,0.4-3.6l-6.1-9.7c-0.6-1-0.6-2.3,0.1-3.2l0.3-0.4
			c0.7-1,1.8-1.4,3-1.2l11.2,2.2c1.3,0.2,2.6-0.4,3.2-1.6c0.6-1.2,0.2-2.7-0.9-3.5l-9-7c-0.9-0.7-1.3-1.9-1-3l0.1-0.5 M140,448.6
			c6.4-4.6,15.4-3.1,19.9,3.3s3.1,15.4-3.3,19.9c-6.4,4.6-15.4,3.1-19.9-3.3l0,0c-0.9-1.3-1.6-2.6-2-4.1c-0.2-0.6-0.8-0.9-1.3-0.8
			l-12.7,2.9c-1.1,0.3-1.8,1.4-1.6,2.5c0,0,0,0,0,0c0,0.1,0,0.1,0.1,0.2l0.4,1.3c0.3,0.8,0.2,1.7-0.2,2.5l-2.1,4.4
			c-0.6,1.1-0.4,2.5,0.3,3.5l1.3,1.8c0.7,1,2,1.6,3.2,1.4l4.9-0.6c0.9-0.1,1.7,0.1,2.4,0.6l1.8,1.3c0.7,0.5,1.1,1.2,1.3,2.1l0.9,4.9
			c0.2,1.2,1.1,2.3,2.3,2.6l2.1,0.7c1.2,0.4,2.5,0.1,3.4-0.8l3.6-3.3c0.6-0.6,1.4-0.9,2.3-0.9h2.3c0.9,0,1.7,0.3,2.3,0.9l3.5,3.5
			c0.9,0.9,2.2,1.2,3.4,0.8l2.1-0.7c1.2-0.4,2.1-1.4,2.3-2.6l0.9-4.9c0.2-0.8,0.6-1.6,1.3-2.1l1.8-1.3c0.7-0.5,1.6-0.7,2.4-0.6
			l4.9,0.7c1.2,0.2,2.5-0.3,3.2-1.3l1.3-1.8c0.7-1,0.9-2.3,0.4-3.5l-2.1-4.5c-0.4-0.8-0.4-1.7-0.1-2.5l0.7-2.1
			c0.3-0.8,0.8-1.5,1.6-1.9l4.4-2.3 M86.2,349.2l-15.9,14.1c-1,0.9-2.2,1.4-3.5,1.5l-1.6,0.1c-1.3,0.1-2.6-0.2-3.7-0.8l-19.7-11.7
			c-2.4-1.4-3.5-4.3-2.7-6.9l0.8-2.8c0.9-3.1,4.1-4.9,7.2-4.2c1.5,0.3,2.8,1.2,3.7,2.5l4.2,6.3c1.2,1.8,3.4,2.9,5.6,2.6l3.1-0.3
			c2.2-0.2,4.2-1.6,5-3.7l3-7.1c0.6-1.4,1.8-2.6,3.2-3.2l3-1.3c1.4-0.6,3.1-0.7,4.5-0.1l7.2,2.6c2.1,0.8,4.4,0.3,6.1-1.1l2.3-2.1
			c1.7-1.5,2.4-3.8,1.9-5.9l-1.7-7.4c-0.4-1.5-0.1-3.1,0.7-4.5l1.6-2.8c0.8-1.3,2.1-2.3,3.6-2.8l7.4-2.1c2.2-0.6,3.8-2.4,4.3-4.5
			l0.7-3c0.5-2.2-0.2-4.5-2-5.9l-5.8-5c-1.2-1-1.9-2.5-2.1-4l-0.3-3.2c-0.1-1.6,0.3-3.1,1.3-4.4l4.7-6.1c1.4-1.8,1.7-4.1,0.8-6.2
			L112,263c-0.9-2.1-2.8-3.5-5-3.7l-7.6-0.7c-1.6-0.1-3-0.9-4-2l-2.1-2.5c-1-1.2-1.6-2.7-1.5-4.2l0.3-7.6c0.1-2.2-1.1-4.3-3-5.5
			l-2.7-1.6c-1.9-1.1-4.3-1.1-6.2,0l-6.6,3.9c-1.3,0.8-3,1.1-4.5,0.7l-3.2-0.7c-1.5-0.3-2.8-1.2-3.7-2.5l-4.3-6.4
			c-1.2-1.8-3.4-2.9-5.6-2.6l-3.1,0.3c-2.2,0.2-4.2,1.6-5,3.7l-3,7.1c-0.6,1.4-1.8,2.6-3.2,3.2l-3,1.3c-1.4,0.6-3.1,0.7-4.5,0.1
			l-7.2-2.6c-2.1-0.8-4.4-0.3-6.1,1.1l-2.3,2.1c-1.7,1.5-2.4,3.8-1.9,5.9l1.7,7.4c0.4,1.5,0.1,3.1-0.7,4.5l-1.6,2.8
			c-0.8,1.3-2.1,2.3-3.6,2.8l-7.4,2.1c-2.2,0.6-3.8,2.4-4.3,4.5l-0.7,3c-0.5,2.2,0.2,4.5,2,5.9l5.8,5c1.2,1,1.9,2.5,2.1,4l0.3,3.2
			c0.1,1.6-0.3,3.1-1.3,4.4l-4.7,6.1c-1.4,1.8-1.7,4.1-0.8,6.2l1.3,2.8c0.9,2.1,2.8,3.5,5,3.7l7.6,0.7c1.6,0.1,3,0.9,4,2l2.1,2.5
			c1,1.2,1.6,2.7,1.5,4.2l-0.3,7.7c-0.1,2.2,1.1,4.3,3,5.5l3.4,2c1.5,0.9,2.6,2.5,2.9,4.2l6.2,35.3c0.2,1.2,0,2.5-0.4,3.6l-0.7,1.5
			c-0.5,1.2-1.5,2.1-2.6,2.8l-20.8,11.6c-2.1,1.2-3.3,3.5-3.1,5.9l0.1,0.7c0.2,2.4,1.9,4.5,4.2,5.2l22.6,7.4c1.2,0.4,2.3,1.2,3,2.3
			l0.9,1.3c0.7,1.1,1.1,2.3,1.1,3.6l-0.3,23.8c0,2.4,1.4,4.6,3.6,5.6l0.6,0.3c2.2,1,4.8,0.6,6.6-1l17.8-15.8c1-0.9,2.2-1.4,3.5-1.5
			l1.6-0.1c1.3-0.1,2.6,0.2,3.7,0.8l23.8,14.2 M87.3,386.6c8.6,9.8,7.6,24.7-2.1,33.3c-9.8,8.6-24.7,7.6-33.3-2.1
			c-8.6-9.8-7.6-24.7,2.1-33.3c1.2-1.1,2.5-2,3.9-2.8C67.6,376.2,79.9,378.2,87.3,386.6z"/>
	</g>
</g>
</svg>
