<svg xmlns="http://www.w3.org/2000/svg" xmlns:xlink="http://www.w3.org/1999/xlink" width="646.667" height="400" viewBox="0 0 646.667 400">
  <defs>
    <clipPath id="clip-path">
      <rect id="Rectangle_1413" data-name="Rectangle 1413" width="646.667" height="400"/>
    </clipPath>
  </defs>
  <g id="green-gears-01" transform="translate(4.5)" opacity="0.7">
    <g id="Group_25" data-name="Group 25" transform="translate(-4.5)" clip-path="url(#clip-path)">
      <g id="Group_19" data-name="Group 19" transform="translate(97.711 273.899)" opacity="0.3">
        <path id="Path_32" data-name="Path 32" d="M184.555,434.15a21.3,21.3,0,1,1-19.2-23.2h0a21.3,21.3,0,0,1,19.2,23.2Z" transform="translate(-142.066 -410.848)" fill="none" stroke="#758491" stroke-miterlimit="10" stroke-width="1"/>
      </g>
      <path id="Path_33" data-name="Path 33" d="M604.312,533.388a31.976,31.976,0,1,1-44.6-7.467h0A31.953,31.953,0,0,1,604.312,533.388Z" transform="translate(-179.112 -173.322)" fill="none" stroke="#1dbb68" stroke-miterlimit="10" stroke-width="1"/>
      <g id="Group_20" data-name="Group 20" transform="translate(46.607 166.912)" opacity="0.3">
        <path id="Path_34" data-name="Path 34" d="M109.07,258.856a24.942,24.942,0,1,1-35.2-2.267A22.162,22.162,0,0,1,78,253.656,24.856,24.856,0,0,1,109.07,258.856Z" transform="translate(-65.41 -250.367)" fill="none" stroke="#758491" stroke-miterlimit="10" stroke-width="1"/>
      </g>
      <g id="Group_21" data-name="Group 21" transform="translate(8.184 -6.471)" opacity="0.3">
        <path id="Path_35" data-name="Path 35" d="M87.792,262.7l-5.4,7.533a5.271,5.271,0,0,0-.733,4.667l3.067,9.933a5.463,5.463,0,0,1,.2,2.067l-.333,3.6a5.344,5.344,0,0,1-.6,2l-4.933,9.2a5.158,5.158,0,0,0-.133,4.733l2.733,6a5.371,5.371,0,0,0,3.667,3l10.133,2.333a5.578,5.578,0,0,1,1.933.867l2.933,2.133a4.393,4.393,0,0,1,1.4,1.533l5.533,8.867a5.2,5.2,0,0,0,4,2.467l6.6.6a5.409,5.409,0,0,0,4.4-1.667l7.067-7.667a4.831,4.831,0,0,1,1.667-1.2l3.267-1.533a5.46,5.46,0,0,1,2-.467l10.4-.333a5.27,5.27,0,0,0,4.133-2.2l3.867-5.4a5.271,5.271,0,0,0,.733-4.667l-3.067-9.933a5.464,5.464,0,0,1-.2-2.067l.333-3.6a5.345,5.345,0,0,1,.6-2l4.933-9.2a5.158,5.158,0,0,0,.133-4.733l-2.733-6a5.371,5.371,0,0,0-3.667-3l-10.133-2.333a5.579,5.579,0,0,1-1.933-.867l-2.933-2.133a4.393,4.393,0,0,1-1.4-1.533l-5.533-8.867a5.2,5.2,0,0,0-4-2.467l-6.6-.6a5.409,5.409,0,0,0-4.4,1.667l-6.067,6.533a6.684,6.684,0,0,1-9.867.133c-.133-.2-.333-.333-.467-.533L86.726,241.3a2.23,2.23,0,0,0-3.067-.533,2.952,2.952,0,0,0-.8,1l-2.867,7.6a3.522,3.522,0,0,1-3,2.4,3.418,3.418,0,0,1-3.4-1.8L69.726,243.1a3.7,3.7,0,0,0-2.8-1.8h-.4a3.54,3.54,0,0,0-3,1.333l-4.867,6.133a3.529,3.529,0,0,1-3.6,1.2,3.6,3.6,0,0,1-2.6-2.8l-1.133-7.733a3.485,3.485,0,0,0-2-2.6l-.4-.2a3.541,3.541,0,0,0-3.267.2l-6.733,4.133a3.428,3.428,0,0,1-3.8-.133,3.538,3.538,0,0,1-1.467-3.533l1.467-7.733a3.436,3.436,0,0,0-1-3.133l-.267-.267a3.4,3.4,0,0,0-3.133-.933l-7.733,1.533a3.5,3.5,0,0,1-3.533-1.4,3.428,3.428,0,0,1-.133-3.8l4-6.733a3.358,3.358,0,0,0,.133-3.267l-.2-.333a3.368,3.368,0,0,0-2.667-1.933l-7.8-1.133a3.532,3.532,0,0,1-1.733-6.2l6.067-5a3.371,3.371,0,0,0,1.267-3.067l-.067-.4a3.586,3.586,0,0,0-1.8-2.733l-6.933-3.733a3.49,3.49,0,0,1-1.8-3.333,3.377,3.377,0,0,1,2.333-3l7.4-2.6a3.327,3.327,0,0,0,2.2-2.4l.133-.4a3.5,3.5,0,0,0-.8-3.2l-5.2-5.867a3.464,3.464,0,0,1-.533-3.8,3.582,3.582,0,0,1,3.2-2.067l7.867.067a3.435,3.435,0,0,0,2.933-1.533l.2-.333a3.56,3.56,0,0,0,.4-3.267l-2.867-7.333a3.517,3.517,0,0,1,.733-3.733,3.416,3.416,0,0,1,3.733-.8l7.333,2.733a3.56,3.56,0,0,0,3.267-.4l.333-.267a3.457,3.457,0,0,0,1.467-2.933l-.2-7.867a3.5,3.5,0,0,1,5.8-2.733l6,5.133a3.667,3.667,0,0,0,3.2.733l.4-.133a3.551,3.551,0,0,0,2.4-2.267l2.467-7.467M139.526,94.1l-2.867-7.333a3.56,3.56,0,0,1,.4-3.267l.2-.333a3.6,3.6,0,0,1,2.933-1.533l7.867.067a3.44,3.44,0,0,0,3.2-2.067,3.593,3.593,0,0,0-.533-3.8l-5.2-5.867a3.5,3.5,0,0,1-.8-3.2l.133-.4a3.338,3.338,0,0,1,2.2-2.4l7.4-2.6a3.532,3.532,0,0,0,2.333-3,3.429,3.429,0,0,0-1.8-3.333L148.059,51.3a3.426,3.426,0,0,1-1.8-2.733l-.067-.4a3.436,3.436,0,0,1,1.267-3.067l6.067-5a3.532,3.532,0,0,0-1.733-6.2l-7.8-1.133a3.8,3.8,0,0,1-2.667-1.933l-.2-.333a3.352,3.352,0,0,1,.133-3.267l4-6.733a3.428,3.428,0,0,0-.133-3.8,3.5,3.5,0,0,0-3.533-1.4l-7.733,1.533a3.579,3.579,0,0,1-3.133-.933l-.267-.267a3.619,3.619,0,0,1-1-3.133l1.467-7.733A3.528,3.528,0,0,0,125.659,1.1l-6.733,4.133a3.541,3.541,0,0,1-3.267.2l-.4-.2a3.485,3.485,0,0,1-2-2.6L111.992-5.1a3.5,3.5,0,0,0-2.6-2.8,3.529,3.529,0,0,0-3.6,1.2L100.926-.569a3.54,3.54,0,0,1-3,1.333h-.4a3.48,3.48,0,0,1-2.8-1.8L90.859-7.9a3.647,3.647,0,0,0-3.4-1.8,3.424,3.424,0,0,0-3,2.4L81.926.164a3.551,3.551,0,0,1-2.4,2.267l-.4.133a3.3,3.3,0,0,1-3.2-.733l-6-5.133a3.593,3.593,0,0,0-3.8-.533,3.437,3.437,0,0,0-2,3.267l.2,7.867a3.631,3.631,0,0,1-1.467,2.933l-.333.267a3.378,3.378,0,0,1-3.267.4L51.926,8.164a3.678,3.678,0,0,0-3.733.8,3.393,3.393,0,0,0-.733,3.733l2.867,7.333a3.56,3.56,0,0,1-.4,3.267l-.2.333a3.6,3.6,0,0,1-2.933,1.533L38.926,25.1a3.44,3.44,0,0,0-3.2,2.067,3.593,3.593,0,0,0,.533,3.8l5.2,5.867a3.5,3.5,0,0,1,.8,3.2l-.133.4a3.338,3.338,0,0,1-2.2,2.4L32.592,45.3a3.532,3.532,0,0,0-2.333,3,3.429,3.429,0,0,0,1.8,3.333l6.933,3.8a3.426,3.426,0,0,1,1.8,2.733l.067.4a3.436,3.436,0,0,1-1.267,3.067l-6.067,5a3.532,3.532,0,0,0,1.733,6.2l7.8,1.133A3.8,3.8,0,0,1,45.726,75.9l.2.333a3.352,3.352,0,0,1-.133,3.267l-4,6.733a3.428,3.428,0,0,0,.133,3.8,3.5,3.5,0,0,0,3.533,1.4L53.192,89.9a.925.925,0,0,1,.6,0,3.831,3.831,0,0,1,3.133,2.6l14.933,40.067a5.108,5.108,0,0,0,2.333,2.8,3.854,3.854,0,0,0,.933.333h.4a3.54,3.54,0,0,0,3-1.333l4.867-6.133a3.529,3.529,0,0,1,3.6-1.2,3.6,3.6,0,0,1,2.6,2.8l1.267,7.733a3.485,3.485,0,0,0,2,2.6l.4.2a3.541,3.541,0,0,0,3.267-.2l6.733-4.133a3.428,3.428,0,0,1,3.8.133,3.538,3.538,0,0,1,1.467,3.533l-1.467,7.733a3.436,3.436,0,0,0,1,3.133l.267.267a3.4,3.4,0,0,0,3.133.933l7.733-1.533a3.5,3.5,0,0,1,3.533,1.4,3.428,3.428,0,0,1,.133,3.8l-4,6.733a3.358,3.358,0,0,0-.133,3.267l.2.333a3.368,3.368,0,0,0,2.667,1.933l7.8,1.2a3.532,3.532,0,0,1,1.733,6.2l-6.067,5a3.371,3.371,0,0,0-1.267,3.067l.067.4a3.586,3.586,0,0,0,1.8,2.733l6.933,3.733a3.49,3.49,0,0,1,1.8,3.333,3.377,3.377,0,0,1-2.333,3l-7.4,2.6a3.327,3.327,0,0,0-2.2,2.4l-.133.4a3.5,3.5,0,0,0,.8,3.2l5.2,5.867a3.464,3.464,0,0,1,.533,3.8,3.582,3.582,0,0,1-3.2,2.067l-7.867-.067a3.435,3.435,0,0,0-2.933,1.533l-.2.333a3.56,3.56,0,0,0-.4,3.267l2.867,7.333a3.517,3.517,0,0,1-.733,3.733,3.416,3.416,0,0,1-3.733.8l-7.333-2.733a3.56,3.56,0,0,0-3.267.4l-.333.267a3.457,3.457,0,0,0-1.467,2.933M73.726,104.164l1.267,7.733a3.517,3.517,0,0,0,6.2,1.6l4.867-6.133a3.54,3.54,0,0,1,3-1.333h.4a3.48,3.48,0,0,1,2.8,1.8l3.867,6.867a3.477,3.477,0,0,0,3.4,1.733,3.522,3.522,0,0,0,3-2.4l2.467-7.467a3.551,3.551,0,0,1,2.4-2.267l.4-.133a3.3,3.3,0,0,1,3.2.733l6,5.133a3.593,3.593,0,0,0,3.8.533,3.437,3.437,0,0,0,2-3.267l-.2-7.867a3.631,3.631,0,0,1,1.467-2.933l.333-.267h0a3.511,3.511,0,0,1,4.067.2l23.467,18.6m-38.067-76.2A24.955,24.955,0,1,1,73.192,67.764h0a24.955,24.955,0,0,1,40.667-28.933Z" transform="translate(-7.777 9.707)" fill="none" stroke="#758491" stroke-miterlimit="10" stroke-width="1"/>
      </g>
      <path id="Path_36" data-name="Path 36" d="M512.4,348.586a24.95,24.95,0,1,1-32-14.867,24.959,24.959,0,0,1,32,14.867ZM765,298.119a16.631,16.631,0,1,1-23.2-3.867A16.643,16.643,0,0,1,765,298.119Z" transform="translate(-151.672 -97.053)" fill="none" stroke="#1dbb68" stroke-miterlimit="10" stroke-width="1"/>
      <g id="Group_22" data-name="Group 22" transform="translate(380.962 108.047)" opacity="0.8">
        <path id="Path_37" data-name="Path 37" d="M612.248,172.557a24.955,24.955,0,1,1-34.8-5.867h0a24.958,24.958,0,0,1,34.8,5.867Z" transform="translate(-566.943 -162.071)" fill="none" stroke="#758491" stroke-miterlimit="10" stroke-width="1"/>
      </g>
      <g id="Group_23" data-name="Group 23" transform="translate(508.14 97.892)" opacity="0.8">
        <path id="Path_38" data-name="Path 38" d="M801.37,155.279a24.942,24.942,0,1,1-35.2-2.267,22.163,22.163,0,0,1,4.133-2.933A25.011,25.011,0,0,1,801.37,155.279Z" transform="translate(-757.71 -146.838)" fill="none" stroke="#758491" stroke-miterlimit="10" stroke-width="1"/>
      </g>
      <path id="Path_39" data-name="Path 39" d="M198.841,175.6l-2.267,3.667L194.107,181l-5.533,1.267a3.471,3.471,0,0,0-2.4,2l-1.133,2.533a3.683,3.683,0,0,0,.067,3.133l2.667,5,.267,3-1.667,5.467a3.544,3.544,0,0,0,.467,3.067l1.6,2.267a3.544,3.544,0,0,0,2.733,1.467l5.667.2,2.733,1.267,3.867,4.2A3.638,3.638,0,0,0,206.374,217l2.733-.267a3.734,3.734,0,0,0,2.667-1.667l3-4.8,2.467-1.733,5.533-1.267a3.471,3.471,0,0,0,2.4-2l1.133-2.533a3.684,3.684,0,0,0-.067-3.133l-2.667-5-.267-3,1.667-5.467a3.544,3.544,0,0,0-.467-3.067l-1.6-2.267a3.544,3.544,0,0,0-2.733-1.467l-4.4-.133a4.931,4.931,0,0,1-2.4-.6l-.467-.2a11.035,11.035,0,0,1-2-1.467m1.933,12.733a8.75,8.75,0,1,1-12.2-2.067,8.755,8.755,0,0,1,12.2,2.067ZM554.974,313.333l-4.067,12.133a4.024,4.024,0,0,1-3.867,2.733l-12.8-.133a4,4,0,0,1-3.8-2.8l-3.867-12.2a3.922,3.922,0,0,1,1.533-4.467l10.4-7.4a4,4,0,0,1,4.733.067l10.267,7.6a3.828,3.828,0,0,1,1.467,4.467Zm-122.6,75.733-.333.2a3.259,3.259,0,0,1-3.467-.267l-2.8-2a3.414,3.414,0,0,0-3.867,0,3.3,3.3,0,0,0-1.267,3.6l1,3.267a3.257,3.257,0,0,1-.933,3.333l-.267.267a3.223,3.223,0,0,1-3.4.667l-3.2-1.2a3.227,3.227,0,0,0-3.733,1,3.314,3.314,0,0,0-.267,3.8l1.8,2.933a3.255,3.255,0,0,1,0,3.467l-.2.333A3.275,3.275,0,0,1,408.307,410l-3.4-.333a3.277,3.277,0,0,0-3.333,1.933,3.383,3.383,0,0,0,.733,3.8l2.467,2.333a3.135,3.135,0,0,1,.867,3.333l-.133.333a3.339,3.339,0,0,1-2.6,2.267l-3.4.533a3.333,3.333,0,0,0-1.067,6.2l3,1.6a3.173,3.173,0,0,1,1.733,3v.4a3.242,3.242,0,0,1-1.933,2.867l-3.133,1.4A3.372,3.372,0,0,0,396.174,443a3.189,3.189,0,0,0,2.533,2.867l3.333.8a3.321,3.321,0,0,1,2.467,2.467l.067.333a3.25,3.25,0,0,1-1.133,3.267l-2.667,2.133a3.408,3.408,0,0,0-1,3.733,3.246,3.246,0,0,0,3.2,2.133l3.4-.133a3.29,3.29,0,0,1,3,1.733l.2.333a3.259,3.259,0,0,1-.267,3.467l-2,2.8a3.414,3.414,0,0,0,0,3.867,3.3,3.3,0,0,0,3.6,1.267l3.267-1a3.257,3.257,0,0,1,3.333.933l.267.267a3.223,3.223,0,0,1,.667,3.4l-1.2,3.2a3.227,3.227,0,0,0,1,3.733,3.314,3.314,0,0,0,3.8.267l2.933-1.8a3.254,3.254,0,0,1,3.467,0l.333.2a3.275,3.275,0,0,1,1.533,3.133l-.333,3.4a3.277,3.277,0,0,0,1.933,3.333,3.361,3.361,0,0,0,3.8-.733l2.333-2.467a3.135,3.135,0,0,1,3.333-.867l.333.133a3.339,3.339,0,0,1,2.267,2.6l.533,3.4a3.333,3.333,0,0,0,6.2,1.067l1.6-3a3.238,3.238,0,0,1,3-1.733h.4a3.242,3.242,0,0,1,2.867,1.933l1.4,3.133a3.372,3.372,0,0,0,3.333,1.933A3.189,3.189,0,0,0,466.174,496l.8-3.333a3.321,3.321,0,0,1,2.467-2.467l.333-.067a3.206,3.206,0,0,1,3.267,1.133l2.133,2.667a3.408,3.408,0,0,0,3.733,1,3.246,3.246,0,0,0,2.133-3.2l-.067-3.4a3.29,3.29,0,0,1,1.733-3l.333-.2a3.259,3.259,0,0,1,3.467.267l2.8,2a3.414,3.414,0,0,0,3.867,0,3.3,3.3,0,0,0,1.267-3.6l-1-3.267a3.257,3.257,0,0,1,.933-3.333l.267-.267a3.223,3.223,0,0,1,3.4-.667l3.2,1.2a3.227,3.227,0,0,0,3.733-1,3.314,3.314,0,0,0,.267-3.8l-1.8-2.933a3.255,3.255,0,0,1,0-3.467l.2-.333a3.275,3.275,0,0,1,3.133-1.533l3.4.333a3.277,3.277,0,0,0,3.333-1.933,3.361,3.361,0,0,0-.733-3.8l-2.467-2.333a3.135,3.135,0,0,1-.867-3.333l.133-.333a3.339,3.339,0,0,1,2.6-2.267l3.4-.533a3.333,3.333,0,0,0,1.067-6.2l-3-1.6a3.173,3.173,0,0,1-1.733-3V439a3.242,3.242,0,0,1,1.933-2.867l3.133-1.4a3.372,3.372,0,0,0,1.933-3.333,3.189,3.189,0,0,0-2.533-2.867l-3.333-.8a3.321,3.321,0,0,1-2.467-2.467l-.067-.333a3.25,3.25,0,0,1,1.133-3.267l2.667-2.133a3.409,3.409,0,0,0,1-3.733,3.246,3.246,0,0,0-3.2-2.133l-3.4.067a3.29,3.29,0,0,1-3-1.733l-.2-.333a3.259,3.259,0,0,1,.267-3.467l2-2.8a3.415,3.415,0,0,0,0-3.867,3.3,3.3,0,0,0-3.6-1.267l-3.267,1a3.257,3.257,0,0,1-3.333-.933l-.267-.267a3.223,3.223,0,0,1-.667-3.4l1.2-3.2a3.3,3.3,0,0,0-4.8-4l-2.8,1.733a3.254,3.254,0,0,1-3.467,0,3.706,3.706,0,0,1-1.733-3.667l5.733-39.2a2.739,2.739,0,0,0,0-1.467l-9-28.667a2.536,2.536,0,0,0-.867-1.2l-11.333-8.467A7.53,7.53,0,0,1,466.907,300l5.733-17a7.67,7.67,0,0,1,7.267-5.2l14.133.133a2.214,2.214,0,0,0,1.4-.467L519.907,260a2.1,2.1,0,0,0,.867-1.133l4.467-13.4a7.67,7.67,0,0,1,7.267-5.2l17.933.2a7.583,7.583,0,0,1,7.2,5.333l4.267,13.467a2.536,2.536,0,0,0,.867,1.2l24.267,18a2.42,2.42,0,0,0,1.133.467l36.467,4.133a2.308,2.308,0,0,1,1.867,1.333l.067.2a2.541,2.541,0,0,1-.067,2.2l-2.667,4.533a2.328,2.328,0,0,0,.133,2.533,2.368,2.368,0,0,0,2.4.933l5.133-1.067a2.541,2.541,0,0,1,2.133.6l.2.2a2.389,2.389,0,0,1,.667,2.067l-.933,5.133a2.2,2.2,0,0,0,1,2.333,2.325,2.325,0,0,0,2.533.067l4.467-2.733a2.338,2.338,0,0,1,2.2-.133l.267.133a2.35,2.35,0,0,1,1.333,1.733l.867,5.133a2.2,2.2,0,0,0,1.733,1.867,2.339,2.339,0,0,0,2.4-.8l3.267-4.067a2.341,2.341,0,0,1,2-.867h.267a2.412,2.412,0,0,1,1.867,1.2l2.6,4.533a2.412,2.412,0,0,0,2.267,1.2,2.3,2.3,0,0,0,2-1.6l1.667-4.933a2.445,2.445,0,0,1,1.6-1.533l.267-.067a2.466,2.466,0,0,1,2.133.467l4,3.4a2.345,2.345,0,0,0,3.867-1.867l-.133-5.267a2.18,2.18,0,0,1,1-1.933l.2-.133a2.339,2.339,0,0,1,2.2-.267l4.933,1.867a2.247,2.247,0,0,0,2.467-.533,2.3,2.3,0,0,0,.533-2.467l-1.933-4.867a2.362,2.362,0,0,1,.267-2.2l.133-.2a2.343,2.343,0,0,1,1.933-1l5.267.067a2.324,2.324,0,0,0,2.133-1.4,2.242,2.242,0,0,0-.4-2.533l-3.467-3.933a2.306,2.306,0,0,1-.533-2.133l.067-.267a2.349,2.349,0,0,1,1.467-1.6l4.933-1.733a2.3,2.3,0,0,0,1.533-2,2.412,2.412,0,0,0-1.2-2.267l-4.6-2.533a2.408,2.408,0,0,1-1.2-1.8V265.8a2.267,2.267,0,0,1,.867-2l4.067-3.333a2.282,2.282,0,0,0-1.133-4.067l-5.2-.8a2.24,2.24,0,0,1-1.733-1.333l-.133-.267a2.541,2.541,0,0,1,.067-2.2l2.667-4.533a2.329,2.329,0,0,0-.133-2.533,2.368,2.368,0,0,0-2.4-.933l-5.133,1.067a2.542,2.542,0,0,1-2.133-.6l-.2-.2a2.389,2.389,0,0,1-.667-2.067l.933-5.133a2.2,2.2,0,0,0-1-2.333,2.325,2.325,0,0,0-2.533-.067l-4.467,2.733a2.338,2.338,0,0,1-2.2.133l-.267-.133a2.35,2.35,0,0,1-1.333-1.733l-.867-5.2a2.2,2.2,0,0,0-1.733-1.867,2.339,2.339,0,0,0-2.4.8l-3.267,4.067a2.341,2.341,0,0,1-2,.867h-.267a2.412,2.412,0,0,1-1.867-1.2l-2.6-4.533a2.412,2.412,0,0,0-2.267-1.2,2.3,2.3,0,0,0-2,1.6l-1.667,4.933a2.445,2.445,0,0,1-1.6,1.533l-.267.067a2.466,2.466,0,0,1-2.133-.467l-4-3.4a2.345,2.345,0,0,0-3.867,1.867l.133,5.267a2.18,2.18,0,0,1-1,1.933l-.2.133a2.339,2.339,0,0,1-2.2.267l-4.933-1.867a2.247,2.247,0,0,0-2.467.533,2.3,2.3,0,0,0-.533,2.467l1.933,4.867a2.362,2.362,0,0,1-.267,2.2l-.133.2a2.343,2.343,0,0,1-1.933,1l-5.267-.067a2.3,2.3,0,0,0-2.133,1.333,2.242,2.242,0,0,0,.4,2.533l3.467,3.933a2.306,2.306,0,0,1,.533,2.133l-.067.267a2.349,2.349,0,0,1-1.467,1.6l-4.933,1.733a2.3,2.3,0,0,0-1.533,2,2.412,2.412,0,0,0,1.2,2.267l5.667,3.067m-151.667,113.4-.867-5.4a3.333,3.333,0,0,0-6.2-1.067l-1.6,3a3.238,3.238,0,0,1-3,1.733h-.4a3.242,3.242,0,0,1-2.867-1.933l-1.4-3.133a3.372,3.372,0,0,0-3.333-1.933,3.189,3.189,0,0,0-2.867,2.533l-.8,3.333a2.366,2.366,0,0,1-.267.6,3.12,3.12,0,0,1-4,.867l-26.4-14.4a3.579,3.579,0,0,0-3.267-.467l-.4.133a3.559,3.559,0,0,0-2.2,2.467l-1.867,7.6a3.537,3.537,0,0,1-6.333,1.133l-4.4-6.533a3.435,3.435,0,0,0-2.933-1.533h-.4a3.6,3.6,0,0,0-2.933,1.533l-4.4,6.533a3.489,3.489,0,0,1-3.533,1.467,3.6,3.6,0,0,1-2.8-2.6l-1.933-7.6a3.559,3.559,0,0,0-2.2-2.467l-.4-.133a3.579,3.579,0,0,0-3.267.467l-6.333,4.6a3.563,3.563,0,0,1-3.8.2,3.477,3.477,0,0,1-1.733-3.4l.8-7.8a3.436,3.436,0,0,0-1.267-3.067l-.333-.267a3.486,3.486,0,0,0-3.2-.667l-7.467,2.2a3.516,3.516,0,0,1-3.667-1.133,3.579,3.579,0,0,1-.467-3.8l3.467-7.067a3.352,3.352,0,0,0-.133-3.267l-.2-.333a3.466,3.466,0,0,0-2.8-1.733l-7.867-.533a3.474,3.474,0,0,1-3.067-2.267,3.537,3.537,0,0,1,.867-3.733l5.667-5.467a3.436,3.436,0,0,0,1-3.133l-.067-.4a3.485,3.485,0,0,0-2-2.6l-7.2-3.2a3.511,3.511,0,0,1,0-6.4l7.2-3.2a3.485,3.485,0,0,0,2-2.6l.067-.4a3.619,3.619,0,0,0-1-3.133m273.933.533-16,11.4a2.1,2.1,0,0,0-.867,1.133l-9.6,28.533a2.74,2.74,0,0,0,0,1.467l4.267,13.467a7.5,7.5,0,0,1-2.867,8.467l-14.6,10.4a7.6,7.6,0,0,1-8.933-.067l-11.333-8.4a2.514,2.514,0,0,0-1.4-.467l-30.133-.267a2.624,2.624,0,0,0-1.4.4l-14.6,10.4m10.867-88.4-8.2,24.533a8.516,8.516,0,0,0,3,9.467l20.8,15.4a8.4,8.4,0,0,0,9.933.067l21.067-15a8.35,8.35,0,0,0,3.133-9.4l-7.733-24.667a8.363,8.363,0,0,0-7.933-5.867L528.241,289a8.668,8.668,0,0,0-8.2,5.733Z" transform="translate(-58.574 -58.533)" fill="none" stroke="#1dbb68" stroke-miterlimit="10" stroke-width="1"/>
      <path id="Path_40" data-name="Path 40" d="M441.633,13.033,445.567,1.3A4.391,4.391,0,0,1,449.7-1.633l12.4.133a4.281,4.281,0,0,1,4.067,3L469.9,13.3a4.337,4.337,0,0,1-1.6,4.8l-10.067,7.2a4.3,4.3,0,0,1-5.067-.067l-9.933-7.4a4.3,4.3,0,0,1-1.6-4.8Zm70.4-53.333L506.5-23.9a9.3,9.3,0,0,0-.067,5.867l7.6,24.2a9.534,9.534,0,0,0,3.4,4.8L528.1,18.9a5.538,5.538,0,0,1,1.933,6.267l-6.667,19.8a5.673,5.673,0,0,1-5.333,3.8l-13.267-.133a9.356,9.356,0,0,0-5.6,1.8L478.5,65.167a9.611,9.611,0,0,0-3.533,4.733l-4.2,12.6a5.672,5.672,0,0,1-5.333,3.8l-23-.2a5.585,5.585,0,0,1-5.267-3.867l-4-12.667a9.534,9.534,0,0,0-3.4-4.8L412.833,51.033a9.419,9.419,0,0,0-5.6-1.867L389.9,49.033M476.767,31.1l7.733-23a9.528,9.528,0,0,0-3.333-10.667L461.633-17.033a9.506,9.506,0,0,0-11.2-.133L430.7-3.1a9.492,9.492,0,0,0-3.533,10.6l7.267,23.133a9.59,9.59,0,0,0,9,6.667l24.267.2A9.383,9.383,0,0,0,476.767,31.1Z" transform="translate(-126.967 13.433)" fill="none" stroke="#758491" stroke-miterlimit="10" stroke-width="1" opacity="0.8"/>
      <path id="Path_41" data-name="Path 41" d="M254.187,302.125l3.867-11.467a3.166,3.166,0,0,1,3-2.133l12.067.133a3.06,3.06,0,0,1,2.933,2.2l3.6,11.533a3.1,3.1,0,0,1-1.2,3.467l-9.867,7a3,3,0,0,1-3.667-.067l-9.733-7.2a3.047,3.047,0,0,1-1-3.467Zm77.933,16.467-2.867,6.4c-3.4,6.867-4.533,8.533-10.333,8.533l-6.733-.067a12.671,12.671,0,0,0-7.4,2.333l-16.333,11.667a12.879,12.879,0,0,0-4.667,6.133l-2.667,8.067a7.6,7.6,0,0,1-7.4,5.333h-.2l-14.6-.133a7.583,7.583,0,0,1-7.2-5.333l-2.6-8.2a13.022,13.022,0,0,0-4.467-6.333l-16.133-11.933a12.294,12.294,0,0,0-7.333-2.467l-8.6-.067a7.583,7.583,0,0,1-7.2-5.333l-4.467-14.133a7.624,7.624,0,0,1,2.867-8.533l7-5a12.516,12.516,0,0,0,4.6-6.2l6.4-19.067a12.275,12.275,0,0,0,.067-7.733l-2.6-8.2a7.624,7.624,0,0,1,2.867-8.533l12.067-8.6a7.708,7.708,0,0,1,9,.067l6.933,5.133a12.294,12.294,0,0,0,7.333,2.467l20.133.2a12.671,12.671,0,0,0,7.4-2.333l7-5a7.708,7.708,0,0,1,9,.067l11.933,8.8a7.56,7.56,0,0,1,2.667,8.533l-2.733,8.2a12.275,12.275,0,0,0-.067,7.733l6,19.133a13.022,13.022,0,0,0,4.467,6.333l28.067,14.267a2.9,2.9,0,0,0,3.867-1.133h0l.2-.333a3.543,3.543,0,0,0,.133-3.267l-3.467-7.067a3.527,3.527,0,0,1,4.133-4.933l7.533,2.133a3.447,3.447,0,0,0,3.2-.667l.333-.267a3.488,3.488,0,0,0,1.2-3.067l-.8-7.8a3.477,3.477,0,0,1,1.733-3.4,3.563,3.563,0,0,1,3.8.2l6.333,4.6a3.551,3.551,0,0,0,3.267.467l.4-.133a3.559,3.559,0,0,0,2.2-2.467l1.867-7.6a3.537,3.537,0,0,1,6.333-1.133l4.4,6.533a3.435,3.435,0,0,0,2.933,1.533h.4a3.6,3.6,0,0,0,2.933-1.533l4.4-6.533a3.489,3.489,0,0,1,3.533-1.467,3.6,3.6,0,0,1,2.8,2.6l1.933,7.6a3.559,3.559,0,0,0,2.2,2.467l.4.133a3.579,3.579,0,0,0,3.267-.467l6.333-4.6a3.563,3.563,0,0,1,3.8-.2,3.477,3.477,0,0,1,1.733,3.4l-.8,7.8a3.436,3.436,0,0,0,1.267,3.067l.333.267a3.486,3.486,0,0,0,3.2.667l7.533-2.2a3.516,3.516,0,0,1,3.667,1.133,3.45,3.45,0,0,1,.467,3.8l-3.467,7.067a3.352,3.352,0,0,0,.133,3.267l.2.333a3.466,3.466,0,0,0,2.8,1.733l7.867.533a3.474,3.474,0,0,1,3.067,2.267,3.567,3.567,0,0,1-.867,3.733l-5.667,5.467a3.436,3.436,0,0,0-1,3.133l.067.4a3.485,3.485,0,0,0,2,2.6l7.2,3.2a3.511,3.511,0,0,1,0,6.4l-7.2,3.2a3.485,3.485,0,0,0-2,2.6l-.067.4a3.619,3.619,0,0,0,1,3.133l5.667,5.467a3.537,3.537,0,0,1-2.2,6.067l-7.867.533a3.566,3.566,0,0,0-2.8,1.733l-.2.333a3.542,3.542,0,0,0-.133,3.267l3.467,7.067a3.527,3.527,0,0,1-4.133,4.933l-7.533-2.133a3.447,3.447,0,0,0-3.2.667l-.333.267a3.488,3.488,0,0,0-1.2,3.067M285.854,317.391l6.667-19.8a9.018,9.018,0,0,0-3.2-10.133l-16.8-12.4a9.108,9.108,0,0,0-10.667-.133l-17,12.133a8.984,8.984,0,0,0-3.4,10.067l6.267,19.867a9.066,9.066,0,0,0,8.533,6.333l20.867.2a9.048,9.048,0,0,0,8.733-6.133Z" transform="translate(-63.854 -79.925)" fill="none" stroke="#1dbb68" stroke-miterlimit="10" stroke-width="1"/>
      <g id="Group_24" data-name="Group 24" transform="translate(138.637 -159.832)" opacity="0.8">
        <path id="Path_42" data-name="Path 42" d="M420.485,60.951a3.179,3.179,0,0,0,1.6-3l-.067-.533a3,3,0,0,0-2.133-2.6l-11.467-3.733a3.162,3.162,0,0,1-2.133-3.133,3.116,3.116,0,0,1,2.6-2.8l11.867-1.867a3.159,3.159,0,0,0,2.533-2.267l.133-.533a3.064,3.064,0,0,0-1.067-3.2l-9.533-7.4a3.043,3.043,0,0,1,2.467-5.4l11.8,2.333a3.075,3.075,0,0,0,3.133-1.267l.333-.467a3.139,3.139,0,0,0,.067-3.4l-6.4-10.2a3.072,3.072,0,0,1,4.2-4.267l10.333,6.2a3.016,3.016,0,0,0,3.4-.133l.467-.333a3.033,3.033,0,0,0,1.2-3.133l-2.533-11.8a3.088,3.088,0,0,1,1.667-3.4,3.106,3.106,0,0,1,3.733.867l7.533,9.4a3.07,3.07,0,0,0,3.2,1l.533-.133a2.989,2.989,0,0,0,2.2-2.533l1.667-11.933a3.046,3.046,0,0,1,2.733-2.6,3.108,3.108,0,0,1,3.2,2.067l3.867,11.4a3.1,3.1,0,0,0,2.667,2.067l.533.067a3.078,3.078,0,0,0,2.933-1.6l5.667-10.667a3.089,3.089,0,0,1,3.467-1.533,3.031,3.031,0,0,1,2.267,3.067l-.267,12.067a3.152,3.152,0,0,0,1.8,2.867l.467.2a2.951,2.951,0,0,0,3.333-.533L503.419.084a3.108,3.108,0,0,1,3.8-.267,3.047,3.047,0,0,1,1.133,3.667l-4.333,11.2a2.977,2.977,0,0,0,.733,3.267l.4.4a3.088,3.088,0,0,0,3.333.667l11.133-4.533a3.069,3.069,0,0,1,3.467,4.867l-7.933,9.067a3.071,3.071,0,0,0-.467,3.333l.2.467a2.984,2.984,0,0,0,2.867,1.733l12.067-.467a3.1,3.1,0,0,1,1.6,5.8l-10.533,5.8a3.179,3.179,0,0,0-1.6,3l.067.533c.133,1.2,29.467,34.6,29.467,34.6a9.01,9.01,0,0,0,6.933,3.733l15,.467a9.763,9.763,0,0,1,3.4.8l4.6,2.133a8.5,8.5,0,0,1,2.8,2.067l10.2,11a8.919,8.919,0,0,0,7.333,2.8l9-.867a8.916,8.916,0,0,0,6.667-4.133l7.933-12.733a7.909,7.909,0,0,1,2.4-2.533l4.133-2.933a9.188,9.188,0,0,1,3.2-1.4l14.667-3.333a9.145,9.145,0,0,0,6.133-4.933l3.733-8.267a8.832,8.832,0,0,0-.267-7.867l-7.067-13.267a10.109,10.109,0,0,1-1-3.333l-.467-5.067a8.672,8.672,0,0,1,.333-3.467l4.467-14.333a9.011,9.011,0,0,0-1.267-7.8l-5.267-7.4a9.01,9.01,0,0,0-6.933-3.733l-15-.467a9.763,9.763,0,0,1-3.4-.8l-4.6-2.133a8.5,8.5,0,0,1-2.8-2.067l-10.2-11a8.919,8.919,0,0,0-7.333-2.8l-9,.867a8.916,8.916,0,0,0-6.667,4.133L572.552-2.716a7.908,7.908,0,0,1-2.4,2.533l-4.133,2.933a9.189,9.189,0,0,1-3.2,1.4L548.152,7.484a9.145,9.145,0,0,0-6.133,4.933l-3.533,8.333a8.832,8.832,0,0,0,.267,7.867l7.067,13.267a10.11,10.11,0,0,1,1,3.333m-139.067-192,5.867-19a6.453,6.453,0,0,0,.267-2.533l-.6-6.067a5.934,5.934,0,0,0-.733-2.4l-7.867-14.733a6.65,6.65,0,0,1-.2-5.733l4.733-10.4a6.63,6.63,0,0,1,4.4-3.6l16.333-3.733a6.69,6.69,0,0,0,2.333-1.067l4.933-3.533a6.654,6.654,0,0,0,1.733-1.867l8.867-14.2a6.406,6.406,0,0,1,4.867-3l11.4-1.067a6.22,6.22,0,0,1,5.333,2.067l11.333,12.267a6.487,6.487,0,0,0,2.067,1.467l5.533,2.533a7.867,7.867,0,0,0,2.467.6l16.733.533a6.513,6.513,0,0,1,5.067,2.733l6.667,9.333a6.6,6.6,0,0,1,.933,5.667l-4.933,15.933a6.453,6.453,0,0,0-.267,2.533l.6,6.067a5.934,5.934,0,0,0,.733,2.4l7.867,14.733a6.649,6.649,0,0,1,.2,5.733l-4.733,10.4a6.63,6.63,0,0,1-4.4,3.6l-16.333,3.733a6.689,6.689,0,0,0-2.333,1.067l-4.933,3.533a6.653,6.653,0,0,0-1.733,1.867l-8.867,14.2a6.406,6.406,0,0,1-4.867,3l-11.4,1.067a6.22,6.22,0,0,1-5.333-2.067l-11.333-12.267a6.487,6.487,0,0,0-2.067-1.467l-3.467-1.6a6.416,6.416,0,0,0-6.2.467l-24.733,16.267a6.326,6.326,0,0,1-3.6,1.067l-27.6-.267a6.658,6.658,0,0,1-3.8-1.267l-10.933-8.133a6.507,6.507,0,0,0-7.6-.067l-16,11.4a6.421,6.421,0,0,0-2.4,7.2l4.067,13a6.325,6.325,0,0,1-.067,4l-8.733,26a6.71,6.71,0,0,1-2.4,3.2l-17.733,12.6a6.664,6.664,0,0,0-2.733,5.2l-.333,26.067a6.293,6.293,0,0,0,1.2,3.8l1,1.4a6.71,6.71,0,0,0,3.2,2.4L341.085,2.15a6.494,6.494,0,0,1,4.4,5.533l.067.733a6.524,6.524,0,0,1-3.267,6.267L320.352,26.95a6.827,6.827,0,0,0-2.733,2.933l-.667,1.4a6.518,6.518,0,0,0-.4,4.2l7.867,32.533a3.078,3.078,0,0,0,3.733,2.267,3.25,3.25,0,0,0,.733-.267l.867-.467a9.333,9.333,0,0,0,4.533-5.4,3.862,3.862,0,0,0-.133-2.6l-2.2-4.733a3.636,3.636,0,0,1,.4-3.667l1.4-1.867a3.537,3.537,0,0,1,3.4-1.4l5.2.733a3.452,3.452,0,0,0,2.533-.6l1.933-1.4a3.436,3.436,0,0,0,1.4-2.2l1-5.133a3.663,3.663,0,0,1,2.467-2.733l2.2-.733a3.583,3.583,0,0,1,3.6.867l3.733,3.667a3.69,3.69,0,0,0,2.4,1h2.4a3.493,3.493,0,0,0,2.4-.933l3.8-3.533a3.589,3.589,0,0,1,3.6-.8l2.2.733a3.464,3.464,0,0,1,2.4,2.8l.933,5.133a3.626,3.626,0,0,0,1.333,2.2l1.933,1.4a3.419,3.419,0,0,0,2.533.667l5.2-.667a3.727,3.727,0,0,1,3.4,1.467l1.333,1.933a3.623,3.623,0,0,1,.333,3.667l-2.267,4.667a3.509,3.509,0,0,0-.2,2.6l.733,2.267a3.322,3.322,0,0,0,1.667,2l26.333,3.2a3.092,3.092,0,0,1,2.867,1.733l.2.467a3.054,3.054,0,0,1-.467,3.333l-7.933,9.067a3.069,3.069,0,0,0,3.467,4.867l11.133-4.533a3.088,3.088,0,0,1,3.333.667l.4.4a3.129,3.129,0,0,1,.733,3.267l-4.333,11.2a3.073,3.073,0,0,0,1.133,3.667,3.018,3.018,0,0,0,3.8-.267l8.933-8.067a3.2,3.2,0,0,1,3.333-.533l.467.2a3.083,3.083,0,0,1,1.8,2.867l-.267,12.067a3.221,3.221,0,0,0,2.267,3.067,3.051,3.051,0,0,0,3.467-1.533l5.667-10.667a3.027,3.027,0,0,1,2.933-1.6l.533.067a3.1,3.1,0,0,1,2.667,2.067l3.867,11.4a3.108,3.108,0,0,0,3.2,2.067,3.048,3.048,0,0,0,2.733-2.667l1.667-11.933a3.186,3.186,0,0,1,2.2-2.533l.533-.133a2.95,2.95,0,0,1,3.2,1.067l7.533,9.4a3.065,3.065,0,0,0,3.733.867,3.007,3.007,0,0,0,1.667-3.4l-2.533-11.8a3.033,3.033,0,0,1,1.2-3.133l.467-.333a3.141,3.141,0,0,1,3.4-.133l10.333,6.2a3.127,3.127,0,0,0,3.8-.467,3.027,3.027,0,0,0,.4-3.8l-6.4-10.2a3.142,3.142,0,0,1,.067-3.4l.333-.467a3.028,3.028,0,0,1,3.133-1.267l11.8,2.333a3.131,3.131,0,0,0,3.4-1.733,3.016,3.016,0,0,0-.933-3.667l-9.467-7.4a3.064,3.064,0,0,1-1.067-3.2l.133-.533M355.685,63.15a15.1,15.1,0,1,1-3.533,21.067h0a15.432,15.432,0,0,1-2.133-4.333,1.194,1.194,0,0,0-1.4-.8l-13.4,3.067a2.222,2.222,0,0,0-1.667,2.667.245.245,0,0,0,.067.2l.4,1.333a3.509,3.509,0,0,1-.2,2.6l-2.267,4.667a3.477,3.477,0,0,0,.333,3.667l1.333,1.933a3.583,3.583,0,0,0,3.4,1.467l5.2-.667a3.5,3.5,0,0,1,2.533.667l1.933,1.4a3.345,3.345,0,0,1,1.333,2.2l.933,5.133a3.464,3.464,0,0,0,2.4,2.8l2.2.733a3.557,3.557,0,0,0,3.6-.8l3.8-3.533a3.617,3.617,0,0,1,2.4-.933h2.4a3.383,3.383,0,0,1,2.4,1l3.733,3.667a3.583,3.583,0,0,0,3.6.867l2.2-.733a3.663,3.663,0,0,0,2.467-2.733l1-5.133a3.722,3.722,0,0,1,1.4-2.2l1.933-1.4a3.452,3.452,0,0,1,2.533-.6l5.2.733a3.537,3.537,0,0,0,3.4-1.4l1.4-1.867a3.636,3.636,0,0,0,.4-3.667l-2.2-4.733a3.5,3.5,0,0,1-.133-2.6l.733-2.267a3.518,3.518,0,0,1,1.667-2l4.667-2.467m-103-122.067-16.8,14.933a6.319,6.319,0,0,1-3.667,1.6l-1.667.133a6.828,6.828,0,0,1-3.933-.867l-20.867-12.4a6.376,6.376,0,0,1-2.867-7.333l.867-2.933a6.428,6.428,0,0,1,7.6-4.467,6.489,6.489,0,0,1,3.933,2.667l4.467,6.667a6.391,6.391,0,0,0,5.933,2.8l3.267-.333a6.508,6.508,0,0,0,5.333-3.867l3.133-7.467a6.518,6.518,0,0,1,3.4-3.4l3.133-1.4a6.3,6.3,0,0,1,4.8-.133l7.6,2.8a6.506,6.506,0,0,0,6.467-1.2l2.467-2.2a6.356,6.356,0,0,0,2-6.267l-1.8-7.867a6.249,6.249,0,0,1,.733-4.733l1.733-2.933a6.694,6.694,0,0,1,3.8-2.933l7.8-2.2a6.494,6.494,0,0,0,4.533-4.8l.733-3.2a6.347,6.347,0,0,0-2.067-6.267l-6.133-5.333a6.51,6.51,0,0,1-2.2-4.267l-.333-3.4a6.694,6.694,0,0,1,1.333-4.6l5-6.4a6.45,6.45,0,0,0,.867-6.533l-1.333-3a6.384,6.384,0,0,0-5.333-3.867l-8.067-.733a6.434,6.434,0,0,1-4.267-2.133l-2.267-2.6a6.583,6.583,0,0,1-1.6-4.467l.267-8.067a6.588,6.588,0,0,0-3.133-5.8l-2.867-1.667a6.5,6.5,0,0,0-6.6,0l-6.933,4.133a6.2,6.2,0,0,1-4.733.733l-3.333-.733a6.489,6.489,0,0,1-3.933-2.667l-4.533-6.733a6.391,6.391,0,0,0-5.933-2.8l-3.267.333a6.508,6.508,0,0,0-5.333,3.867l-3.133,7.467a6.518,6.518,0,0,1-3.4,3.4l-3.133,1.4a6.3,6.3,0,0,1-4.8.133l-7.6-2.8a6.506,6.506,0,0,0-6.467,1.2l-2.467,2.2a6.356,6.356,0,0,0-2,6.267l1.8,7.867a6.249,6.249,0,0,1-.733,4.733l-1.733,2.933a6.694,6.694,0,0,1-3.8,2.933l-7.8,2.2a6.494,6.494,0,0,0-4.533,4.8l-.733,3.2a6.347,6.347,0,0,0,2.067,6.267l6.133,5.333a6.51,6.51,0,0,1,2.2,4.267l.333,3.4a6.694,6.694,0,0,1-1.333,4.6l-5,6.4a6.45,6.45,0,0,0-.867,6.533l1.333,3a6.384,6.384,0,0,0,5.333,3.867l8.067.733a6.434,6.434,0,0,1,4.267,2.133l2.267,2.6a6.583,6.583,0,0,1,1.6,4.467l-.267,8.133a6.588,6.588,0,0,0,3.133,5.8l3.6,2.133a6.517,6.517,0,0,1,3.067,4.467l6.533,37.267a6.777,6.777,0,0,1-.467,3.8l-.733,1.6a6.478,6.478,0,0,1-2.733,2.933L220.219,13.684a6.463,6.463,0,0,0-3.267,6.267l.067.733a6.473,6.473,0,0,0,4.4,5.533l23.867,7.867a6.052,6.052,0,0,1,3.2,2.4l1,1.4a6.585,6.585,0,0,1,1.2,3.8l-.333,25.133a6.412,6.412,0,0,0,3.8,5.933l.667.333a6.311,6.311,0,0,0,6.933-1.067l18.8-16.733a6.319,6.319,0,0,1,3.667-1.6l1.667-.133a6.828,6.828,0,0,1,3.933.867l25.2,15m-15.067-71.8a24.942,24.942,0,1,1-35.2-2.267,22.165,22.165,0,0,1,4.133-2.933A24.94,24.94,0,0,1,299.952-2.383Z" transform="translate(-203.456 239.749)" fill="none" stroke="#758491" stroke-miterlimit="10" stroke-width="1"/>
      </g>
    </g>
  </g>
</svg>
