<svg xmlns="http://www.w3.org/2000/svg" width="179.531" height="50" viewBox="0 0 179.531 50"><g transform="translate(-2393.068 -302.52)"><g transform="translate(2443.153 343.597)"><g transform="translate(0 0)"><g transform="translate(51.433)"><path d="M2640.7,401.861s-1.442-.165-2.039-.165c-.866,0-1.308.309-1.308.917,0,.659.371.814,1.576,1.144,1.483.412,2.019.8,2.019,2.008a2.069,2.069,0,0,1-2.359,2.215,15.017,15.017,0,0,1-2.307-.278l.114-.917s1.391.185,2.122.185c.875,0,1.277-.391,1.277-1.133,0-.6-.319-.8-1.4-1.061-1.524-.391-2.184-.855-2.184-2.08,0-1.422.938-2.009,2.349-2.009a15.645,15.645,0,0,1,2.235.247Z" transform="translate(-2636.208 -400.687)" fill="#173647"/><g transform="translate(7.48 0.124)"><path d="M2654,400.981h1.988l1.576,5.51,1.576-5.51h2v7.055h-1.154v-6.1h-.061l-1.762,5.81h-1.2l-1.762-5.81h-.061v6.1H2654Z" transform="translate(-2653.998 -400.981)" fill="#173647"/></g><g transform="translate(32.326 0.124)"><path d="M2713.088,400.981h5.15V402h-1.988v6.036H2715.1V402h-2.009Z" transform="translate(-2713.088 -400.981)" fill="#173647"/></g><g transform="translate(39.773 0.124)"><path d="M2733.478,400.981c1.4,0,2.153.525,2.153,1.833a1.548,1.548,0,0,1-.834,1.586,1.523,1.523,0,0,1,1.01,1.638c0,1.442-.875,2-2.245,2H2730.8v-7.055Zm-1.535.989v2.019h1.514c.7,0,1.01-.35,1.01-1.041s-.351-.978-1.05-.978Zm0,2.987v2.091h1.556c.71,0,1.133-.227,1.133-1.071,0-.8-.6-1.02-1.153-1.02Z" transform="translate(-2730.799 -400.981)" fill="#173647"/></g><g transform="translate(47.613 0.124)"><path d="M2749.445,400.981h4.45v1h-3.307v2h2.689v.978h-2.689v2.07h3.307v1.009h-4.45Z" transform="translate(-2749.445 -400.981)" fill="#173647"/></g><g transform="translate(54.421 0.124)"><path d="M2767.379,400.981h2.276l1.751,7.055h-1.153l-.521-2.07H2767.3l-.521,2.07h-1.143Zm.152,3.976h1.979l-.73-3.018h-.515Z" transform="translate(-2765.638 -400.981)" fill="#173647"/></g><g transform="translate(62.734 0.124)"><path d="M2786.551,405.945v2.091h-1.143v-7.055h2.679a2.188,2.188,0,0,1,2.389,2.456,2.381,2.381,0,0,1-1.154,2.25l1.164,2.348h-1.257l-1.02-2.091Zm1.535-3.976h-1.535v2.987h1.556c.865,0,1.195-.777,1.195-1.509C2789.3,402.644,2788.911,401.97,2788.087,401.97Z" transform="translate(-2785.408 -400.981)" fill="#173647"/></g><g transform="translate(17.111 0.124)"><path d="M2678.645,400.981h2.276l1.751,7.055h-1.154l-.521-2.07h-2.429l-.521,2.07H2676.9Zm.152,3.976h1.979l-.73-3.018h-.515Z" transform="translate(-2676.904 -400.981)" fill="#173647"/></g><g transform="translate(25.424 0.124)"><path d="M2697.817,405.945v2.091h-1.143v-7.055h2.678a2.188,2.188,0,0,1,2.39,2.456,2.381,2.381,0,0,1-1.153,2.25l1.164,2.348H2700.5l-1.02-2.091Zm1.535-3.976h-1.535v2.987h1.556c.865,0,1.195-.777,1.195-1.509C2700.568,402.644,2700.176,401.97,2699.352,401.97Z" transform="translate(-2696.674 -400.981)" fill="#173647"/></g></g><g transform="translate(0 1.666)"><path d="M2517.145,409.14a1.271,1.271,0,0,1-.5,1.067,2.148,2.148,0,0,1-1.347.383,3.37,3.37,0,0,1-1.417-.237v-.582a3.829,3.829,0,0,0,1.439.291,1.5,1.5,0,0,0,.907-.228.752.752,0,0,0,.305-.636.816.816,0,0,0-.108-.441,1,1,0,0,0-.361-.317,5.078,5.078,0,0,0-.771-.329,2.459,2.459,0,0,1-1.033-.613,1.353,1.353,0,0,1-.31-.925,1.151,1.151,0,0,1,.45-.953,1.872,1.872,0,0,1,1.19-.354,3.517,3.517,0,0,1,1.421.283l-.188.525a3.2,3.2,0,0,0-1.247-.269,1.209,1.209,0,0,0-.748.205.677.677,0,0,0-.269.571.876.876,0,0,0,.1.441.93.93,0,0,0,.334.315,4.171,4.171,0,0,0,.721.317,2.859,2.859,0,0,1,1.122.624A1.229,1.229,0,0,1,2517.145,409.14Z" transform="translate(-2513.885 -405.005)" fill="#173647"/><path d="M2524.658,408.526v2.519a1.013,1.013,0,0,0,.217.709.879.879,0,0,0,.677.233,1.1,1.1,0,0,0,.891-.333,1.682,1.682,0,0,0,.281-1.088v-2.041h.588v3.883h-.485l-.085-.521h-.032a1.169,1.169,0,0,1-.5.439,1.685,1.685,0,0,1-.731.152,1.483,1.483,0,0,1-1.061-.336,1.432,1.432,0,0,1-.353-1.077v-2.54Z" transform="translate(-2519.783 -406.896)" fill="#173647"/><path d="M2536.748,412.382a1.679,1.679,0,0,1-.692-.14,1.3,1.3,0,0,1-.526-.43h-.042a5.21,5.21,0,0,1,.042.645v1.6h-.588v-5.627h.478l.082.532h.028a1.368,1.368,0,0,1,.528-.461,1.6,1.6,0,0,1,.691-.142,1.435,1.435,0,0,1,1.192.528,2.812,2.812,0,0,1-.007,2.968A1.44,1.44,0,0,1,2536.748,412.382Zm-.085-3.525a1.043,1.043,0,0,0-.861.329,1.693,1.693,0,0,0-.273,1.049v.131a1.943,1.943,0,0,0,.273,1.171,1.039,1.039,0,0,0,.875.352.909.909,0,0,0,.789-.407,1.929,1.929,0,0,0,.285-1.123,1.859,1.859,0,0,0-.285-1.115A.938.938,0,0,0,2536.663,408.857Z" transform="translate(-2526.087 -406.798)" fill="#173647"/><path d="M2547.581,412.382a1.677,1.677,0,0,1-.692-.14,1.3,1.3,0,0,1-.527-.43h-.042a5.163,5.163,0,0,1,.042.645v1.6h-.588v-5.627h.478l.082.532h.028a1.368,1.368,0,0,1,.528-.461,1.6,1.6,0,0,1,.691-.142,1.435,1.435,0,0,1,1.193.528,2.812,2.812,0,0,1-.007,2.968A1.44,1.44,0,0,1,2547.581,412.382Zm-.085-3.525a1.043,1.043,0,0,0-.861.329,1.7,1.7,0,0,0-.273,1.049v.131a1.945,1.945,0,0,0,.273,1.171,1.039,1.039,0,0,0,.875.352.909.909,0,0,0,.788-.407,1.929,1.929,0,0,0,.285-1.123,1.859,1.859,0,0,0-.285-1.115A.938.938,0,0,0,2547.5,408.857Z" transform="translate(-2532.366 -406.798)" fill="#173647"/><path d="M2559.727,410.366a2.142,2.142,0,0,1-.478,1.483,1.686,1.686,0,0,1-1.322.533,1.747,1.747,0,0,1-.925-.245,1.61,1.61,0,0,1-.624-.7,2.442,2.442,0,0,1-.219-1.07,2.14,2.14,0,0,1,.474-1.479,1.68,1.68,0,0,1,1.319-.53,1.645,1.645,0,0,1,1.3.542A2.134,2.134,0,0,1,2559.727,410.366Zm-2.958,0a1.847,1.847,0,0,0,.3,1.134,1.183,1.183,0,0,0,1.752,0,1.835,1.835,0,0,0,.3-1.136,1.8,1.8,0,0,0-.3-1.125,1.05,1.05,0,0,0-.884-.384,1.034,1.034,0,0,0-.871.379A1.82,1.82,0,0,0,2556.768,410.366Z" transform="translate(-2538.384 -406.798)" fill="#173647"/><path d="M2569.115,408.357a2.314,2.314,0,0,1,.464.042l-.082.546a2.011,2.011,0,0,0-.425-.053,1.036,1.036,0,0,0-.806.383,1.4,1.4,0,0,0-.335.953v2.083h-.588v-3.883h.485l.067.719h.028a1.709,1.709,0,0,1,.521-.585A1.171,1.171,0,0,1,2569.115,408.357Z" transform="translate(-2544.866 -406.798)" fill="#173647"/><path d="M2575.958,410.754a1.9,1.9,0,0,0,.3-.023,2.032,2.032,0,0,0,.23-.048v.449a1.044,1.044,0,0,1-.281.076,2.053,2.053,0,0,1-.335.03q-1.127,0-1.127-1.187v-2.311h-.556v-.284l.556-.244.248-.829h.34v.9h1.127v.457h-1.127v2.286a.785.785,0,0,0,.166.538A.578.578,0,0,0,2575.958,410.754Z" transform="translate(-2548.833 -405.655)" fill="#173647"/><path d="M2583.012,412.382a1.784,1.784,0,0,1-1.359-.524,2.029,2.029,0,0,1-.5-1.456,2.25,2.25,0,0,1,.462-1.491,1.536,1.536,0,0,1,1.242-.553,1.464,1.464,0,0,1,1.155.48,1.84,1.84,0,0,1,.425,1.267v.372h-2.675a1.54,1.54,0,0,0,.346,1.038,1.2,1.2,0,0,0,.923.354,3.125,3.125,0,0,0,1.24-.262v.525a3.13,3.13,0,0,1-.59.193A3.371,3.371,0,0,1,2583.012,412.382Zm-.159-3.533a.959.959,0,0,0-.746.305,1.4,1.4,0,0,0-.328.843h2.03a1.292,1.292,0,0,0-.248-.852A.873.873,0,0,0,2582.852,408.849Z" transform="translate(-2552.87 -406.798)" fill="#173647"/><path d="M2594.042,409.642h-.032a1.381,1.381,0,0,1-1.219.592,1.441,1.441,0,0,1-1.185-.521,2.292,2.292,0,0,1-.423-1.481,2.329,2.329,0,0,1,.425-1.491,1.429,1.429,0,0,1,1.183-.532,1.414,1.414,0,0,1,1.213.574h.046l-.025-.28-.014-.273v-1.581h.588v5.514h-.479Zm-1.176.1a1.07,1.07,0,0,0,.874-.328,1.655,1.655,0,0,0,.271-1.057v-.124a1.95,1.95,0,0,0-.274-1.178,1.042,1.042,0,0,0-.877-.353.9.9,0,0,0-.792.4,2,2,0,0,0-.274,1.136,1.918,1.918,0,0,0,.273,1.124A.923.923,0,0,0,2592.866,409.74Z" transform="translate(-2558.682 -404.649)" fill="#173647"/><path d="M2609.253,406.215a1.443,1.443,0,0,1,1.189.523,2.8,2.8,0,0,1,0,2.966,1.437,1.437,0,0,1-1.185.529,1.68,1.68,0,0,1-.693-.14,1.3,1.3,0,0,1-.526-.43h-.042l-.124.5h-.422v-5.514h.588v1.34c0,.3-.009.569-.029.808h.029A1.4,1.4,0,0,1,2609.253,406.215Zm-.085.493a1.025,1.025,0,0,0-.868.346,2.664,2.664,0,0,0,.007,2.335,1.038,1.038,0,0,0,.875.352.906.906,0,0,0,.808-.395,2.026,2.026,0,0,0,.266-1.135,1.95,1.95,0,0,0-.266-1.131A.942.942,0,0,0,2609.168,406.708Z" transform="translate(-2568.107 -404.649)" fill="#173647"/><path d="M2616.79,408.526h.631l.851,2.215a8.483,8.483,0,0,1,.347,1.095h.028q.046-.181.193-.618t.962-2.691h.631l-1.669,4.422a2.2,2.2,0,0,1-.579.93,1.232,1.232,0,0,1-.813.275,2.358,2.358,0,0,1-.531-.061v-.471a2.006,2.006,0,0,0,.436.043.9.9,0,0,0,.865-.68l.216-.553Z" transform="translate(-2573.522 -406.896)" fill="#173647"/></g></g></g><g transform="translate(2393.068 302.52)"><path d="M2424.8,307.614q-.528-.317-1.08-.593c-.376-.184-.762-.363-1.154-.518-.124-.052-.247-.1-.372-.149-.343-.127-.689-.268-1.042-.371a19.427,19.427,0,1,0-9.792,37.51v5.56c11.676-1.753,22.016-10.979,22.787-23.093C2434.606,318.671,2430.954,311.23,2424.8,307.614Z" transform="translate(-2394.517 -303.969)" fill="#23d96c" fill-rule="evenodd"/><path d="M2408.855,348.827v-5.935a20.472,20.472,0,1,1,11.172-39.357c.274.08.557.187.832.291l.248.093c.165.064.291.113.417.167.348.137.739.313,1.208.543q.589.295,1.153.633c6.393,3.756,10.354,11.518,9.857,19.316-.763,12-10.722,22.122-23.679,24.067Zm4.8-44.214h-.026a18.366,18.366,0,0,0-3.524,36.408l.85.165v5.18c11.392-2.224,20.009-11.272,20.686-21.922.448-7.033-3.1-14.018-8.83-17.383l-.008-.005c-.331-.2-.671-.385-1.01-.555-.409-.2-.752-.355-1.071-.481-.129-.055-.236-.1-.344-.138l-.27-.1c-.247-.094-.481-.183-.708-.249A18.425,18.425,0,0,0,2413.657,304.613Z" transform="translate(-2393.068 -302.52)" fill="#173647"/><path d="M2423.863,327.614a1.8,1.8,0,0,1,1.583.608,4.184,4.184,0,0,1,.728,1.107c.645,1.422,1.027,3.461.23,4.605a6.334,6.334,0,0,1-3.981-3.087,3.236,3.236,0,0,1-.347-1.339A1.957,1.957,0,0,1,2423.863,327.614Zm-5.683,8.025a7.742,7.742,0,0,0,1.218.737,5.789,5.789,0,0,0,4.883-.138,6.116,6.116,0,0,0-3.345-3.45,3.664,3.664,0,0,0-1.442-.321,1.884,1.884,0,0,0-.319,0A1.766,1.766,0,0,0,2418.18,335.639Zm6.1,3.433c-.777-.518-2.379-.309-3.312-.292a4.416,4.416,0,0,0-1.666.352,3.5,3.5,0,0,0-1.218.738,1.817,1.817,0,0,0,1.409,3.171,3.3,3.3,0,0,0,1.442-.321C2422.371,342.1,2424.076,340.4,2424.281,339.072Zm2.61,2a6.556,6.556,0,0,0-3.724,3.506,3.091,3.091,0,0,0-.321,1.314,1.907,1.907,0,0,0,3.3,1.346,7.422,7.422,0,0,0,.7-1.218C2427.466,344.687,2427.711,342.3,2426.891,341.072Zm2.557-7.167a5.941,5.941,0,0,0,3.7-3.167,3.243,3.243,0,0,0,.319-1.346,1.915,1.915,0,0,0-1.794-1.954,1.832,1.832,0,0,0-1.6.641,7.382,7.382,0,0,0-.705,1.218C2428.747,330.731,2428.525,332.777,2429.448,333.9Zm4.208,12.115a3.244,3.244,0,0,0-.321-1.345,5.869,5.869,0,0,0-3.554-3.269,5.386,5.386,0,0,0-.226,4.711,4.147,4.147,0,0,0,.7,1.121C2431.387,348.468,2433.759,347.558,2433.656,346.02Zm4.2-6.28a7.466,7.466,0,0,0-1.217-.7,4.425,4.425,0,0,0-1.666-.352,6.4,6.4,0,0,0-3.188.555,5.959,5.959,0,0,0,3.316,3.386,3.672,3.672,0,0,0,1.442.32A1.8,1.8,0,0,0,2437.852,339.74Z" transform="translate(-2407.197 -317.034)" fill="#173647" fill-rule="evenodd"/></g><g transform="translate(2443.821 312.705)"><g transform="translate(0)"><path d="M2525.274,331.462a6.673,6.673,0,0,0-5.312,2.241,9.037,9.037,0,0,0-1.948,6.136,9.218,9.218,0,0,0,1.878,6.191,6.675,6.675,0,0,0,5.354,2.185,18.27,18.27,0,0,0,4.872-.768v2.081a15.009,15.009,0,0,1-5.235.8,8.857,8.857,0,0,1-6.959-2.736q-2.45-2.736-2.45-7.776a12.268,12.268,0,0,1,1.18-5.528,8.471,8.471,0,0,1,3.406-3.658,10.315,10.315,0,0,1,5.242-1.284,12.65,12.65,0,0,1,5.613,1.173l-1.005,2.038A10.816,10.816,0,0,0,2525.274,331.462Z" transform="translate(-2515.473 -328.321)" fill="#173647"/><path d="M2558.708,342.189v9.927a3.991,3.991,0,0,0,.852,2.792,3.469,3.469,0,0,0,2.667.922,4.349,4.349,0,0,0,3.511-1.312,6.618,6.618,0,0,0,1.11-4.286v-8.042h2.317v15.3h-1.913l-.335-2.052h-.125a4.617,4.617,0,0,1-1.976,1.731,6.638,6.638,0,0,1-2.883.6,5.848,5.848,0,0,1-4.181-1.326,5.645,5.645,0,0,1-1.389-4.244v-10.01Z" transform="translate(-2539.17 -335.767)" fill="#173647"/><path d="M2600.9,357.385a6.531,6.531,0,0,1-5.145-2.045,8.412,8.412,0,0,1-1.822-5.787,8.67,8.67,0,0,1,1.85-5.933,6.659,6.659,0,0,1,5.27-2.094,10.472,10.472,0,0,1,2.206.238,7.286,7.286,0,0,1,1.731.558l-.712,1.969a10.915,10.915,0,0,0-1.676-.51,7.456,7.456,0,0,0-1.6-.2q-4.664,0-4.663,5.948a7.081,7.081,0,0,0,1.137,4.328,3.96,3.96,0,0,0,3.372,1.508,10.311,10.311,0,0,0,3.923-.824v2.052A8.368,8.368,0,0,1,2600.9,357.385Z" transform="translate(-2560.944 -335.382)" fill="#173647"/><path d="M2628.01,342.189v9.927a3.991,3.991,0,0,0,.852,2.792,3.467,3.467,0,0,0,2.666.922,4.35,4.35,0,0,0,3.511-1.312,6.618,6.618,0,0,0,1.11-4.286v-8.042h2.317v15.3h-1.913l-.335-2.052h-.125a4.617,4.617,0,0,1-1.976,1.731,6.637,6.637,0,0,1-2.882.6,5.849,5.849,0,0,1-4.182-1.326,5.643,5.643,0,0,1-1.389-4.244v-10.01Z" transform="translate(-2579.332 -335.767)" fill="#173647"/><path d="M2684.521,357.105v-9.954a4.133,4.133,0,0,0-.782-2.743,3.025,3.025,0,0,0-2.429-.915,3.92,3.92,0,0,0-3.2,1.242,5.905,5.905,0,0,0-1.033,3.825v8.544h-2.318v-9.954a4.135,4.135,0,0,0-.781-2.743,3.044,3.044,0,0,0-2.443-.915,3.785,3.785,0,0,0-3.19,1.305,7.065,7.065,0,0,0-1.012,4.279v8.028h-2.318V341.8h1.885l.376,2.094h.112a4.556,4.556,0,0,1,1.85-1.745,5.653,5.653,0,0,1,2.674-.628q3.588,0,4.691,2.6h.111a4.889,4.889,0,0,1,1.983-1.9,6.156,6.156,0,0,1,2.96-.7,5.181,5.181,0,0,1,3.888,1.333,5.966,5.966,0,0,1,1.292,4.265v9.982Z" transform="translate(-2602.138 -335.382)" fill="#173647"/><path d="M2732.757,333.087a5.69,5.69,0,0,1,4.684,2.059,11.026,11.026,0,0,1-.014,11.685,5.665,5.665,0,0,1-4.67,2.087,6.623,6.623,0,0,1-2.729-.551,5.13,5.13,0,0,1-2.073-1.7h-.167l-.489,1.969h-1.661V326.916h2.317v5.277q0,1.773-.112,3.183h.112A5.5,5.5,0,0,1,2732.757,333.087Zm-.335,1.94a4.046,4.046,0,0,0-3.421,1.361q-1.047,1.361-1.047,4.586t1.075,4.614a4.089,4.089,0,0,0,3.448,1.389,3.575,3.575,0,0,0,3.183-1.557,8,8,0,0,0,1.047-4.475,7.693,7.693,0,0,0-1.047-4.454A3.711,3.711,0,0,0,2732.422,335.027Z" transform="translate(-2637.269 -326.916)" fill="#173647"/><path d="M2770.408,357.385a7.031,7.031,0,0,1-5.354-2.066,8,8,0,0,1-1.961-5.738,8.874,8.874,0,0,1,1.822-5.878,6.053,6.053,0,0,1,4.893-2.178,5.77,5.77,0,0,1,4.551,1.892,7.247,7.247,0,0,1,1.676,4.991v1.466h-10.541a6.066,6.066,0,0,0,1.361,4.09,4.707,4.707,0,0,0,3.637,1.4,12.326,12.326,0,0,0,4.886-1.033v2.066a12.267,12.267,0,0,1-2.324.761A13.073,13.073,0,0,1,2770.408,357.385Zm-.628-13.919a3.787,3.787,0,0,0-2.939,1.2,5.537,5.537,0,0,0-1.292,3.323h8a5.1,5.1,0,0,0-.978-3.357A3.438,3.438,0,0,0,2769.78,343.466Z" transform="translate(-2658.976 -335.382)" fill="#173647"/><path d="M2807.773,341.525a9.062,9.062,0,0,1,1.829.168l-.321,2.15a7.9,7.9,0,0,0-1.675-.209,4.077,4.077,0,0,0-3.176,1.508,5.5,5.5,0,0,0-1.32,3.756v8.209h-2.317V341.8h1.912l.265,2.834h.112a6.713,6.713,0,0,1,2.052-2.3A4.621,4.621,0,0,1,2807.773,341.525Z" transform="translate(-2680.824 -335.382)" fill="#173647"/></g></g></g></svg>